<svg width="226" height="176" viewBox="0 0 226 176" fill="none" xmlns="http://www.w3.org/2000/svg">
<path d="M56.2834 101.843L3.36279 154.763V136.946L24.5312 115.955H3.36279V101.843H56.2834Z" fill="#E7ECED"/>
<path d="M95.0913 108.899V172.403H80.9796V172.298V140.545L52.7549 172.298V172.403H31.5869L95.0913 108.899Z" fill="#E7ECED"/>
<path d="M190.349 172.403H169.181V172.298L140.956 140.545V172.298V172.403H126.844V108.899L190.349 172.403Z" fill="#E7ECED"/>
<path d="M222.101 140.651V158.291L165.652 101.843H222.101V115.955H197.405L222.101 140.651Z" fill="#E7ECED"/>
<path d="M222.101 59.5068V73.6185H165.652L222.101 17.1704V34.8105L197.405 59.5068H222.101Z" fill="#E7ECED"/>
<path d="M190.349 3.05762L126.844 66.5625V3.05762H140.956V34.8103L169.181 3.05762H190.349Z" fill="#E7ECED"/>
<path d="M95.0913 3.05762V66.5625L31.5869 3.05762H52.7549L80.9796 34.8103V3.05762H95.0913Z" fill="#E7ECED"/>
<path d="M56.2834 73.6184H3.36279V59.5067H24.5312L3.36279 38.5144V20.6982L56.2834 73.6184Z" fill="#E7ECED"/>
<path d="M24.5312 115.955L3.36279 136.947V115.955H24.5312Z" fill="#83B6FF"/>
<path d="M80.9801 172.298V172.403H52.7554V172.298L80.9801 140.545V172.298Z" fill="#83B6FF"/>
<path d="M169.18 172.298V172.403H140.956V172.298V140.545L169.18 172.298Z" fill="#83B6FF"/>
<path d="M222.101 115.955V140.651L197.405 115.955H222.101Z" fill="#83B6FF"/>
<path d="M222.101 34.8101V59.5064H197.405L222.101 34.8101Z" fill="#83B6FF"/>
<path d="M169.18 3.05762L140.956 34.8103V3.05762H169.18Z" fill="#83B6FF"/>
<path d="M80.9801 3.05762V34.8103L52.7554 3.05762H80.9801Z" fill="#83B6FF"/>
<path d="M24.5312 59.5065H3.36279V38.5142L24.5312 59.5065Z" fill="#83B6FF"/>
<path d="M222.101 158.291V172.403H190.348L126.844 108.898V172.403H95.091V108.898L31.5866 172.403H3.3623V154.763L56.2829 101.843H3.3623V73.6178H56.2829L3.3623 20.6976V3.05713H31.5866L95.091 66.562V3.05713H126.844V66.562L190.348 3.05713H222.101V17.1697L165.652 73.6178H222.101V101.843H165.652L222.101 158.291Z" fill="#EF3F40"/>
<path d="M31.5866 126.539L3.3623 154.763V172.403H31.5866V126.539Z" fill="#C93435"/>
<path d="M31.5866 3.05713H3.3623V20.6976L31.5866 48.9215V3.05713Z" fill="#C93435"/>
<path d="M31.5879 73.6182H3.3623V101.844H31.5879V73.6182Z" fill="#C93435"/>
<path d="M0 0V176H225.393V0H0ZM144.248 6.65481H161.736L144.248 26.3278V6.65481ZM130.136 6.65481H137.593V43.8314L170.639 6.65481H182.28L130.136 58.7993L130.136 6.65481ZM77.6165 6.65481V26.3278L60.1292 6.65481H77.6165ZM6.65481 46.7685L16.4149 56.4481H6.65481V46.7685ZM6.65481 119.552H16.4149L6.65481 129.23V119.552ZM6.65481 138.604L32.5763 112.897H6.65481V105.439H48.2147L6.65481 147V138.604ZM77.6165 169.345H60.0355L77.6165 149.566V169.345ZM91.7291 169.345H84.2713V132.063L51.1316 169.345H39.585L91.7295 117.201L91.7291 169.345ZM144.248 169.345V149.566L161.829 169.345H144.248ZM170.733 169.345L137.593 132.063V169.345H130.136V117.201L182.279 169.346L170.733 169.345ZM218.738 132.887L205.402 119.552H218.738V132.887ZM218.738 56.4485H205.402L218.738 43.113V56.4485ZM218.738 33.7015L189.336 63.1034H218.738V70.5607H173.65L218.738 25.4725V33.7015ZM218.738 16.061L157.584 77.215H218.738V98.785H193.841L193.843 105.44H218.738V112.897H189.336L218.738 142.299V150.528L173.65 105.44H193.843L193.841 98.785H157.584L218.738 159.939V169.346H191.691L123.481 101.135V169.346H98.3839V101.135L30.1736 169.345H6.65481V156.41L64.2809 98.7845H6.65481V77.2146L31.5528 77.215V70.5602L6.65481 70.5598V63.1034H32.5763L6.65481 37.3976V29.0004L48.2147 70.5602H31.5528V77.215H64.2809L6.65481 19.5894V6.65481H30.1736L98.3839 74.8647V13.9123H91.7291V58.7989L39.585 6.65481H51.2258L84.2713 43.8314V6.65481H91.7291V13.9123H98.3839V6.65481H123.481V74.8647L191.691 6.65481H218.738V16.061Z" fill="#231F20"/>
</svg>
