<svg width="163" height="220" viewBox="0 0 163 220" fill="none" xmlns="http://www.w3.org/2000/svg">
<path d="M74.3479 48.8517L58.5402 64.7084L69.0712 75.372L55.8364 88.651L71.7002 104.568L84.9388 91.2888L111.506 117.697L127.238 101.911L100.795 75.3796L114.019 62.1119L98.1511 46.1914L84.9275 59.4591L74.3479 48.8517ZM103.439 62.1156L90.2155 75.3833L116.659 101.915L111.479 107.108L84.9126 80.7001L71.704 93.9566L66.416 88.651L79.6284 75.3946L69.0974 64.7346L74.3517 59.4628L84.9275 70.074L98.1511 56.8063L103.439 62.1156Z" fill="#4D7198"/>
<path d="M161.614 83.3421L92.8595 14.3622C92.8259 14.3284 92.781 14.3209 92.7473 14.2871C92.4556 14.017 92.1228 13.7956 91.7563 13.6267C91.6815 13.593 91.6105 13.548 91.5357 13.5179C91.487 13.4992 91.4459 13.4654 91.3973 13.4504C87.2275 12.0546 83.8506 9.11664 81.8872 5.1731L80.339 2.07006C79.8005 0.98943 78.7795 0.238996 77.5941 0.0438827C76.4198 -0.136222 75.2044 0.242748 74.3517 1.09449L17.4934 58.1388C12.3887 63.2605 12.3887 71.5903 17.4934 76.712C17.7963 77.016 18.1441 77.2411 18.4694 77.5112C18.5929 77.6838 18.6639 77.8827 18.8172 78.0365L20.9975 80.2278C19.3333 81.4473 17.9272 83.0082 16.9885 84.8918L2.2616 114.44C-0.26644 119.517 0.0476961 125.644 3.08433 130.432L23.5293 162.663C24.4193 164.07 24.8905 165.695 24.8905 167.357V216.248C24.8905 218.319 26.5659 220 28.6302 220H73.5066C75.5709 220 77.2463 218.319 77.2463 216.248V180.212C77.2463 177.957 78.0952 175.826 79.6322 174.208C80.7242 173.06 82.1341 171.856 83.6262 170.576C88.8281 166.126 95.754 160.089 98.8655 148.611C101.876 148.165 103.899 146.547 105.87 144.57L161.61 88.6439C162.313 87.9385 162.706 86.9855 162.706 85.9911C162.706 84.9968 162.313 84.0475 161.614 83.3421ZM22.7813 63.4443L76.0122 10.0359C77.9605 13.3453 80.6344 16.0957 83.8319 18.1106L30.717 71.4027C30.2084 71.913 29.61 72.2807 28.9855 72.5546C28.7499 72.6559 28.4993 72.686 28.2525 72.7572C27.8449 72.8698 27.441 72.9749 27.0221 72.9974C26.7417 73.0124 26.4612 72.9674 26.1807 72.9411C25.7918 72.8998 25.4028 72.8398 25.0289 72.716C24.7521 72.6259 24.4904 72.5021 24.2248 72.367C23.7162 72.1044 23.2076 71.8342 22.7813 71.4065C21.7305 70.3521 21.1508 68.9375 21.1508 67.4254C21.1508 65.9133 21.7305 64.4987 22.7813 63.4443ZM78.7758 164.873C77.1303 166.28 75.5784 167.608 74.2209 169.034C71.3488 172.055 69.7706 176.025 69.7706 180.216V212.499H32.3736V167.361C32.3736 164.269 31.4986 161.252 29.8419 158.637L9.39694 126.406C7.76269 123.828 7.5944 120.534 8.95566 117.802L23.6826 88.25C24.3856 86.8354 25.6123 85.8223 27.1268 85.3908C27.3998 85.312 27.6766 85.2782 27.9533 85.2445C27.972 85.2407 27.987 85.252 28.0057 85.252C28.6751 85.1769 29.5876 85.1844 30.5599 85.5409C30.9002 85.6722 31.233 85.8298 31.5509 86.0287L46.2591 95.2515C49.9764 97.5816 57.3436 102.249 58.3533 106.504C58.4506 107.052 58.5328 107.6 58.5179 108.159C58.5141 108.313 58.5029 108.459 58.4954 108.605C58.387 110.32 58.0467 111.72 57.4408 112.699C57.4109 112.744 57.4072 112.8 57.381 112.845C56.2179 114.53 54.1686 114.947 51.0759 114.947C50.9263 114.947 50.7131 114.962 50.5635 114.98C50.2943 115.01 43.7274 115.712 34.7521 108.298C34.681 108.238 34.595 108.219 34.5202 108.166C34.3632 108.054 34.1949 107.971 34.0228 107.885C33.7798 107.765 33.5404 107.664 33.2824 107.6C33.0991 107.551 32.9196 107.525 32.7289 107.506C32.4634 107.48 32.2054 107.487 31.9398 107.521C31.7528 107.544 31.5733 107.562 31.3901 107.615C31.1059 107.694 30.8441 107.825 30.5786 107.971C30.4627 108.035 30.3355 108.05 30.2271 108.125C30.1897 108.151 30.171 108.193 30.1373 108.219C30.0924 108.253 30.0401 108.264 29.9989 108.298C29.7596 108.497 29.5876 108.744 29.4081 108.988C29.3407 109.078 29.2435 109.15 29.1874 109.247C28.9481 109.641 28.7835 110.069 28.7013 110.515C28.6826 110.617 28.705 110.722 28.6938 110.823C28.6601 111.172 28.6489 111.517 28.7125 111.866C28.7424 112.031 28.8172 112.178 28.8695 112.339C28.9369 112.553 28.9705 112.774 29.079 112.977C30.343 115.333 32.5606 121.423 30.9264 124.166C29.9204 125.854 27.0932 126.207 24.8942 126.207C22.8299 126.207 21.1545 127.888 21.1545 129.959C21.1545 132.03 22.8299 133.711 24.8942 133.711C30.9039 133.711 35.0924 131.794 37.3474 128.015C37.7102 127.408 37.9944 126.774 38.2263 126.128L55.6196 151.05C58.8208 155.106 54.3406 165.031 51.6667 169.203C50.5523 170.944 51.0497 173.267 52.7887 174.389C53.4132 174.794 54.1162 174.989 54.8118 174.989C56.0384 174.989 57.2389 174.381 57.9532 173.27C59.09 171.503 68.8581 155.737 61.6143 146.57L44.3033 121.757C47.8373 122.654 50.3578 122.556 51.3077 122.455C55.1858 122.425 58.271 121.577 60.6233 119.986L73.9853 133.389C76.6965 136.113 79.5985 136.769 81.5469 137.024C85.3913 137.535 88.6299 139.37 90.6643 142.191C91.6105 143.508 92.0106 144.255 92.1826 144.63C89.9837 155.249 84.0413 160.37 78.7758 164.873ZM100.586 139.268C99.7592 140.097 99.1983 140.619 98.7084 140.927C98.1661 139.872 97.4631 138.818 96.7226 137.79C93.4691 133.276 88.428 130.361 82.5192 129.58C81.0458 129.389 80.167 128.98 79.2694 128.079L65.1184 113.877C65.2456 113.487 65.3054 113.033 65.4064 112.62C65.5223 112.155 65.6495 111.697 65.7317 111.202C65.7916 110.827 65.8178 110.418 65.8551 110.024C65.9038 109.57 65.9786 109.138 66.001 108.658C66.0085 108.463 65.986 108.268 65.986 108.073C65.9898 107.855 66.0272 107.667 66.0272 107.442C66.0272 106.377 65.8738 105.349 65.6009 104.358C64.6098 100.062 61.8724 96.1896 57.8971 93.6981L35.5112 79.6612C34.8792 79.2635 34.2211 78.9258 33.5404 78.6481C33.5965 78.6144 33.6414 78.5618 33.6938 78.5243C34.509 78.0103 35.2906 77.4212 36.0011 76.7083L90.2155 22.3205L153.682 85.9987L100.586 139.268Z" fill="#4D7198"/>
</svg>
