<svg width="220" height="220" viewBox="0 0 220 220" fill="none" xmlns="http://www.w3.org/2000/svg">
<g clip-path="url(#clip0)">
<path d="M197.97 142.454V50.8074H85.1748V43.7577H92.2245V22.6086H86.5397L89.2074 14.6037L74.6003 0L59.9932 14.6071L62.6609 22.6086H56.976V43.7577H64.0257V177.702H47.7474L37.0575 199.083C28.4313 200.223 21.7275 207.543 21.7275 216.475V220H127.473V216.475C127.473 207.543 120.769 200.223 112.143 199.083L101.453 177.702H85.1748V142.454H197.97ZM190.92 57.8571V135.404H85.1748V57.8571H190.92ZM85.1748 36.708H64.0257V29.6583H85.1748V36.708ZM68.0583 16.5141L74.6003 9.96872L81.1423 16.5107L79.1079 22.6086H70.0927L68.0583 16.5141ZM119.821 212.951H29.3796C30.8357 208.847 34.7547 205.901 39.3518 205.901H109.849C114.446 205.901 118.365 208.847 119.821 212.951ZM104.145 198.851H45.0556L52.1053 184.752H97.0953L104.145 198.851ZM71.0754 177.702V43.7577H78.1251V177.702H71.0754Z" fill="#4D7198"/>
<path d="M110.484 121.304H165.611L174.504 76.8411L152.997 85.4433L138.047 70.4971L123.098 85.4433L101.589 76.8411L110.484 121.304ZM124.798 93.7184L138.047 80.4658L151.296 93.7184L165.036 88.2194L162.651 100.155H152.147V107.205H161.241L159.831 114.255H116.263L114.854 107.205H152.147V100.155H113.444L111.057 88.2194L124.798 93.7184Z" fill="#4D7198"/>
</g>
<defs>
<clipPath id="clip0">
<rect width="220" height="220" fill="white"/>
</clipPath>
</defs>
</svg>
