<svg width="220" height="220" viewBox="0 0 220 220" fill="none" xmlns="http://www.w3.org/2000/svg">
<g clip-path="url(#clip0)">
<path d="M219.413 63.568C218.644 62.2574 217.222 61.4453 215.705 61.4453L145.249 61.8836L140.599 53.0707C139.852 51.657 138.395 50.7805 136.796 50.7805C136.1 50.7805 135.408 50.9523 134.794 51.2789C133.776 51.8117 133.032 52.7098 132.693 53.8098C132.353 54.9012 132.461 56.0656 132.993 57.0797L138.863 68.2C139.611 69.6137 141.067 70.4945 142.666 70.4945L208.297 70.0863L178.88 121.92C178.27 122.998 178.154 124.287 178.562 125.455L200.992 189.793L165.598 177.384C165.765 175.729 165.861 173.971 165.861 172.089V101.962C165.861 92.9032 158.491 85.5332 149.431 85.5332C146.149 85.5332 143.091 86.5042 140.522 88.1689C138.164 81.9809 132.172 77.5711 125.166 77.5711C121.884 77.5711 118.826 78.5421 116.257 80.2068C113.9 74.0188 107.907 69.6094 100.902 69.6094C92.6556 69.6094 85.8111 75.7169 84.6484 83.6455C82.2765 82.3148 79.5445 81.5521 76.6364 81.5521C67.5773 81.5521 60.2069 88.9221 60.2069 97.9812V123.714C59.7733 124.068 59.3544 124.444 58.9531 124.846C55.8507 127.948 54.1406 132.073 54.1406 136.464V177.975L21.6171 189.698L44.0167 125.456C44.4464 124.227 44.3003 122.891 43.6171 121.786L11.9925 70.473L77.336 70.4945C78.9344 70.4945 80.391 69.6137 81.1387 68.2L110.001 13.5051L114.951 22.8809C115.695 24.2945 117.151 25.1754 118.754 25.1754C119.446 25.1754 120.138 25.0035 120.757 24.677C121.77 24.1398 122.518 23.2418 122.854 22.1461C123.193 21.0504 123.086 19.8859 122.549 18.8719L113.799 2.29023C113.056 0.876562 111.599 0 110.001 0C108.402 0 106.946 0.876562 106.202 2.29023L74.7445 61.8965L4.29681 61.875C2.74134 61.875 1.30188 62.7172 0.545635 64.075C-0.214912 65.4328 -0.17624 67.1 0.640166 68.4277L35.2304 124.554L10.5363 195.383C9.99489 196.939 10.3988 198.692 11.5718 199.848C12.3797 200.651 13.4539 201.094 14.5926 201.094C15.091 201.094 15.5808 201.008 16.0492 200.84L56.2074 186.381C56.2594 186.495 56.3049 186.612 56.3586 186.725C57.6451 189.427 59.4438 191.811 61.7117 193.843C62.4718 201.458 63.2409 210.176 63.2409 214.28V215.703C63.2409 218.076 65.1646 220 67.5378 220H148.219C150.484 220 152.36 218.242 152.507 215.982L153.563 199.767C156.546 197.91 161.202 193.875 163.848 185.877L206.566 200.853C208.087 201.386 209.884 200.973 211.022 199.839C212.182 198.679 212.582 196.93 212.045 195.384L187.316 124.464L219.444 67.8653C220.195 66.5328 220.186 64.8871 219.413 63.568ZM117.331 94.0006C117.331 89.6801 120.846 86.1652 125.167 86.1652C129.487 86.1652 133.002 89.6801 133.002 94.0006V124.331C133.002 128.652 129.487 132.167 125.167 132.167C120.846 132.167 117.331 128.651 117.331 124.331V94.0006ZM93.066 86.0385C93.066 81.718 96.5808 78.2031 100.902 78.2031C105.222 78.2031 108.737 81.718 108.737 86.0385V120.752C107.194 120.28 105.572 120.034 103.912 120.033H93.0664V86.0385H93.066ZM68.8011 97.9812C68.8011 93.6607 72.3159 90.1459 76.6369 90.1459C80.9574 90.1459 84.4726 93.6607 84.4726 97.9812V120.033H70.5722C69.9763 120.033 69.3854 120.068 68.8011 120.131V97.9812ZM157.267 172.09C157.267 188.913 148.787 192.707 148.034 193.01C146.322 193.527 145.26 195.007 145.143 196.796L144.192 211.406H132.495V201.614C132.495 199.241 130.57 197.317 128.198 197.317C125.83 197.317 123.901 199.241 123.901 201.614V211.406H108.23V197.317C108.23 194.944 106.305 193.02 103.934 193.02C101.566 193.02 99.6367 194.944 99.6367 197.317V211.406H71.759C71.6022 207.879 71.2181 203.106 70.7755 198.309C72.2291 198.026 73.4701 197.001 73.9969 195.577C74.8133 193.359 73.6746 190.884 71.4574 190.064C71.4574 190.064 71.4574 190.064 71.4531 190.059C71.4273 190.05 68.9437 189.049 66.7351 186.768C65.0336 184.98 62.7687 181.973 62.7347 176.498V136.464C62.7433 132.15 66.2582 128.636 70.5722 128.627H103.912C108.222 128.636 111.737 132.15 111.745 136.464C111.737 140.774 108.222 144.289 103.912 144.297H85.7364C84.6063 144.297 83.4977 144.757 82.6985 145.557C81.8992 146.355 81.4395 147.464 81.4395 148.594V163.255C81.4395 164.566 82.0281 165.79 83.0508 166.611C84.0563 167.415 85.4184 167.729 86.6774 167.449C86.7547 167.432 89.628 166.839 93.1343 166.839C97.3624 166.839 101.3 167.776 103.732 169.412C105.279 170.44 106.387 171.677 107.221 173.31C108.239 175.321 108.733 177.77 108.738 180.799C108.738 183.167 110.667 185.092 113.034 185.092C115.402 185.092 117.331 183.167 117.331 180.799C117.331 176.451 116.511 172.623 114.886 169.421C113.769 167.195 112.227 165.245 110.306 163.621C108.617 162.19 106.671 161.043 104.531 160.209C101.179 158.898 97.4367 158.258 93.0879 158.25C92.0824 158.25 91.0555 158.284 90.0328 158.357V152.891H103.912C108.299 152.891 112.424 151.181 115.526 148.079C117.799 145.806 119.321 142.983 119.974 139.911C121.608 140.458 123.351 140.76 125.166 140.76C131.01 140.76 136.147 137.691 139.061 133.082C141.891 135.392 145.501 136.78 149.431 136.78C152.266 136.78 154.936 136.058 157.266 134.788V172.09H157.267ZM157.267 120.35C157.267 124.671 153.752 128.186 149.431 128.186C145.111 128.186 141.595 124.67 141.595 120.35V101.962C141.595 97.6418 145.111 94.1269 149.431 94.1269C153.752 94.1269 157.267 97.6418 157.267 101.962V120.35Z" fill="#4D7198"/>
<path d="M127.771 42.2729C130.145 42.2729 132.068 40.3492 132.068 37.9761C132.068 35.603 130.145 33.6792 127.771 33.6792C125.398 33.6792 123.475 35.603 123.475 37.9761C123.475 40.3492 125.398 42.2729 127.771 42.2729Z" fill="#4D7198"/>
</g>
<defs>
<clipPath id="clip0">
<rect width="220" height="220" fill="white"/>
</clipPath>
</defs>
</svg>
