<svg height="512" viewBox="0 0 60 60" width="512" xmlns="http://www.w3.org/2000/svg"><g id="Page-1" fill="none" fill-rule="evenodd"><g id="008---Mushroom-Cloud" fill="rgb(0,0,0)" fill-rule="nonzero" transform="translate(0 -1)"><path id="Shape" d="m53 8c-.5650877-.00237641-1.1283204.06479505-1.677.2-2.7721989-2.99549848-7.0879325-4.00316287-10.9-2.545-2.6540771-2.96461309-6.4449227-4.6588885-10.424-4.6588885s-7.7699229 1.69427541-10.424 4.6588885c-3.8114976-1.45725314-8.1261526-.44965568-10.898 2.545-.54867963-.13520495-1.11191233-.20237641-1.677-.2-3.86599325 0-7 3.1340068-7 7s3.13400675 7 7 7c.56508767.0023764 1.12832037-.0647951 1.677-.2 2.6184856 2.8380536 6.6432292 3.9035989 10.323 2.733v8.944c-2.644.9-4 2.081-4 3.523s1.355 2.622 4 3.523v9.077c-1.1773251.4694141-2.2251862 1.2138206-3.056 2.171-.8993911-.5041893-1.9129281-.7696231-2.944-.771-2.2446621-.0096979-4.30505385 1.2405229-5.333 3.236-1.55772425-.4509251-3.23164171-.2520996-4.64039352.551179s-2.43235445 2.1425952-2.83760648 3.712821c-.15244368.5999684-.01934977 1.2367128.36064524 1.7253895.379995.4886767.96432235.7745419 1.58335476.7746105h55.734c.6190324-.0000686 1.2033598-.2859338 1.5833548-.7746105s.5130889-1.1254211.3606452-1.7253895c-.4054727-1.5700414-1.4291666-2.9091151-2.8378923-3.7121905-1.4087257-.8030753-3.0825207-1.0017652-4.6401077-.5508095-1.0276712-1.995865-3.0881181-3.2465056-5.333-3.237-1.0311602.0016824-2.0447028.2674619-2.944.772-.8308854-.9573412-1.8787028-1.7020596-3.056-2.172v-9.077c2.644-.9 4-2.081 4-3.523s-1.356-2.623-4-3.523v-8.944c3.6797708 1.1705989 7.7045144.1050536 10.323-2.733.5486796.1352049 1.1119123.2023764 1.677.2 3.8659932 0 7-3.1340068 7-7s-3.1340068-7-7-7zm-27 29c.5522847 0 1-.4477153 1-1v-7.324c1.9766724.4319965 4.0233276.4319965 6 0v7.324c0 .5522847.4477153 1 1 1s1-.4477153 1-1v-7.937c1.4568887-.5567922 2.8092493-1.3556992 4-2.363v13.33c-2.9507227.6802567-5.9720923 1.0058932-9 .97-3.0279159.036065-6.0493059-.2895737-9-.97v-13.33c1.1908971 1.0065914 2.5432493 1.8048172 4 2.361v7.939c0 .5522847.4477153 1 1 1zm4.019 16.206c-2.0566505-2.8843672-5.4915239-4.4580336-9.019-4.132v-7.986c2.9573284.6340758 5.9755887.9399262 9 .912 3.0244064.0278204 6.0426551-.2780288 9-.912v7.986c-3.51944-.3411436-6.9502989 1.2373342-8.981 4.132zm-13.019-16.206c0-.183.418-.761 2-1.4v2.8c-1.582-.639-2-1.217-2-1.4zm26 16.68c.1554346.2360578.4035029.3953164.6828392.4383791.2793364.0430628.5638505-.0340923.7831608-.2123791.7162267-.5828567 1.6105872-.9026241 2.534-.906 1.7564865-.0085217 3.3108672 1.1354212 3.825 2.815.0866838.2800653.2919007.5079843.5613696.623471.2694688.1154866.5760426.1069065.8386304-.023471 1.079169-.5352536 2.3423025-.5547099 3.4374449-.0529476 1.0951424.5017624 1.9052346 1.4711102 2.2045551 2.6379476h-55.74c.30201104-1.1668113 1.11404475-2.1352408 2.21033708-2.6360426 1.09629232-.5008019 2.35995581-.4805803 3.43966292.0550426.26258779.1303775.56916156.1389576.83863042.023471.26946885-.1154867.47468582-.3434057.56136958-.623471.51247626-1.6804522 2.0661559-2.826103 3.823-2.819.9251302.0022323 1.8214405.3220657 2.539.906.2193103.1782868.5038244.2554419.7831608.2123791.2793363-.0430627.5274046-.2023213.6828392-.4383791.7730977-1.1730636 1.936469-2.0346103 3.284-2.432 3.0466145-.7005236 6.2161969.4944744 8.042 3.032.3650386.5679565.9938498.9112955 1.669.9112955s1.3039614-.343339 1.669-.9112955c1.8262285-2.5369301 4.9956116-3.7314589 8.042-3.031h.006c1.3469713.3974233 2.5099138 1.2585604 3.283 2.431zm0-16.68c0 .183-.419.761-2 1.4v-2.8c1.582.639 2 1.217 2 1.4zm10-17c-.5684143.0023215-1.1327639-.0958557-1.667-.29-.4034365-.1472566-.8558469-.020469-1.124.315-2.3164878 2.8752827-6.303319 3.7853292-9.638 2.2-.4190574-.2007608-.9211903-.0864137-1.212.276-2.2752606 2.8418695-5.7185285 4.4959873-9.359 4.4959873s-7.0837394-1.6541178-9.359-4.4959873c-.2908097-.3624137-.7929426-.4767608-1.212-.276-3.334681 1.5853292-7.3215122.6752827-9.638-2.2-.26815306-.335469-.72056351-.4622566-1.124-.315-.53423606.1941443-1.09858572.2923215-1.667.29-2.76142375 0-5-2.2385763-5-5s2.23857625-5 5-5c.56841428-.0023215 1.13276394.0958557 1.667.29.40343649.1472566.85584694.020469 1.124-.315 2.3164878-2.87528271 6.303319-3.78532925 9.638-2.2.4188328.20098451.9209211.08706185 1.212-.275 2.2752606-2.84186948 5.7185285-4.49598725 9.359-4.49598725s7.0837394 1.65411777 9.359 4.49598725c.2908097.36241372.7929426.47676082 1.212.276 3.334681-1.58532925 7.3215122-.67528271 9.638 2.2.2681531.335469.7205635.4622566 1.124.315.5341745-.194485 1.0985259-.29300105 1.667-.291 2.7614237 0 4.9999999 2.2385763 4.9999999 5s-2.2385762 5-4.9999999 5z"/><path id="Shape" d="m30 5c-3.0354012-.00698964-5.9078366 1.37251585-7.8 3.746-.3462825.43133439-.2773344 1.06171745.154 1.408.4313344.3462825 1.0617175.2773344 1.408-.154 1.5124861-1.89964917 3.8097782-3.00447066 6.238-3 .5522847 0 1-.44771525 1-1s-.4477153-1-1-1z"/><path id="Shape" d="m7 12c-1.65685425 0-3 1.3431458-3 3 0 .5522847.44771525 1 1 1s1-.4477153 1-1 .44771525-1 1-1 1-.4477153 1-1-.44771525-1-1-1z"/></g></g></svg>