<svg width="220" height="220" viewBox="0 0 220 220" fill="none" xmlns="http://www.w3.org/2000/svg">
<g clip-path="url(#clip0)">
<path d="M194.333 25.6668C192.261 25.6581 190.196 25.9043 188.184 26.4001C178.02 15.4166 162.195 11.7218 148.218 17.0684C138.486 6.19818 124.586 -0.0141602 109.996 -0.0141602C95.4064 -0.0141602 81.5066 6.19818 71.775 17.0684C57.7995 11.7252 41.9791 15.4197 31.8157 26.4001C29.8038 25.9043 27.7387 25.6581 25.6667 25.6668C11.4914 25.6668 0 37.1581 0 51.3334C0 65.5087 11.4914 77.0001 25.6667 77.0001C27.7387 77.0088 29.8038 76.7625 31.8157 76.2668C41.4168 86.673 56.1742 90.58 69.6667 86.2878V119.082C59.972 122.382 55 126.713 55 132C55 137.287 59.9683 141.614 69.6667 144.918V178.2C65.3498 179.921 61.5077 182.651 58.4613 186.16C55.1636 184.312 51.4473 183.338 47.6667 183.333C39.4362 183.298 31.8815 187.882 28.1123 195.199C22.4007 193.545 16.263 194.274 11.0976 197.22C5.93213 200.165 2.17892 205.076 0.693 210.833C0.13404 213.033 0.622051 215.368 2.01537 217.16C3.40868 218.952 5.55121 220 7.821 220H212.179C214.449 220 216.591 218.952 217.985 217.16C219.378 215.368 219.866 213.033 219.307 210.833C217.82 205.077 214.067 200.167 208.901 197.222C203.736 194.277 197.599 193.549 191.888 195.202C188.12 187.884 180.565 183.299 172.333 183.333C168.552 183.34 164.836 184.314 161.539 186.164C158.492 182.654 154.65 179.923 150.333 178.2V144.918C160.028 141.618 165 137.287 165 132C165 126.713 160.028 122.382 150.333 119.082V86.2878C163.826 90.58 178.583 86.673 188.184 76.2668C190.196 76.7625 192.261 77.0088 194.333 77.0001C208.509 77.0001 220 65.5087 220 51.3334C220 37.1581 208.509 25.6668 194.333 25.6668ZM95.3333 132C97.3584 132 99 130.358 99 128.333V101.479C106.248 103.063 113.752 103.063 121 101.479V128.333C121 130.358 122.642 132 124.667 132C126.692 132 128.333 130.358 128.333 128.333V99.2311C133.675 97.1895 138.634 94.2602 143 90.5668V139.443C132.181 141.938 121.102 143.132 110 143C98.8976 143.132 87.8192 141.938 77 139.443V90.5668C81.3666 94.2576 86.3252 97.1844 91.6667 99.2238V128.333C91.6667 130.358 93.3083 132 95.3333 132ZM110.07 191.422C102.529 180.846 89.9341 175.076 77 176.271V146.989C87.8435 149.314 98.9105 150.436 110 150.333C121.089 150.435 132.156 149.314 143 146.989V176.271C130.095 175.021 117.516 180.808 110.07 191.422ZM62.3333 132C62.3333 131.329 63.866 129.21 69.6667 126.867V137.133C63.866 134.79 62.3333 132.671 62.3333 132ZM157.667 193.16C158.237 194.026 159.146 194.61 160.17 194.767C161.195 194.925 162.238 194.642 163.042 193.989C165.668 191.852 168.947 190.679 172.333 190.667C178.774 190.636 184.473 194.83 186.358 200.988C186.676 202.015 187.429 202.851 188.417 203.274C189.405 203.698 190.529 203.666 191.492 203.188C195.449 201.226 200.08 201.154 204.096 202.994C208.111 204.834 211.081 208.388 212.179 212.667H7.799C8.90637 208.388 11.8838 204.838 15.9036 203.001C19.9233 201.165 24.5567 201.239 28.5157 203.203C29.4785 203.681 30.6026 203.713 31.5906 203.289C32.5787 202.866 33.3312 202.03 33.649 201.003C35.5281 194.841 41.2249 190.641 47.6667 190.667C51.0588 190.675 54.3453 191.848 56.9763 193.989C57.7805 194.642 58.8237 194.925 59.8479 194.767C60.8722 194.61 61.7817 194.026 62.3517 193.16C65.1864 188.859 69.452 185.7 74.393 184.243C85.5639 181.674 97.1857 186.056 103.88 195.36C105.219 197.443 107.524 198.702 110 198.702C112.476 198.702 114.781 197.443 116.12 195.36C122.816 186.058 134.437 181.678 145.607 184.246H145.629C150.568 185.704 154.832 188.861 157.667 193.16ZM157.667 132C157.667 132.671 156.13 134.79 150.333 137.133V126.867C156.134 129.21 157.667 131.329 157.667 132ZM194.333 69.6668C192.249 69.6753 190.18 69.3153 188.221 68.6034C186.742 68.0635 185.083 68.5284 184.1 69.7584C175.606 80.3011 160.988 83.638 148.76 77.8251C147.224 77.089 145.383 77.5082 144.316 78.8371C135.974 89.2573 123.348 95.3224 110 95.3224C96.6516 95.3224 84.0263 89.2573 75.6837 78.8371C74.6174 77.5082 72.7762 77.089 71.2397 77.8251C59.0125 83.638 44.3941 80.3011 35.9003 69.7584C34.9171 68.5284 33.2583 68.0635 31.779 68.6034C29.8201 69.3153 27.7509 69.6753 25.6667 69.6668C15.5414 69.6668 7.33333 61.4587 7.33333 51.3334C7.33333 41.2082 15.5414 33.0001 25.6667 33.0001C27.7509 32.9916 29.8201 33.3516 31.779 34.0634C33.2583 34.6034 34.9171 34.1385 35.9003 32.9084C44.3941 22.3657 59.0125 19.0289 71.2397 24.8418C72.7754 25.5787 74.6164 25.161 75.6837 23.8334C84.0263 13.4132 96.6516 7.34814 110 7.34814C123.348 7.34814 135.974 13.4132 144.316 23.8334C145.383 25.1623 147.224 25.5816 148.76 24.8454C160.988 19.0326 175.606 22.3694 184.1 32.9121C185.083 34.1422 186.742 34.607 188.221 34.0671C190.18 33.354 192.249 32.9928 194.333 33.0001C204.459 33.0001 212.667 41.2082 212.667 51.3334C212.667 61.4587 204.459 69.6668 194.333 69.6668Z" fill="#7442C8"/>
<path d="M110 14.6661C98.8703 14.6405 88.338 19.6987 81.4001 28.4014C80.1304 29.983 80.3832 32.2944 81.9648 33.5641C83.5463 34.8338 85.8577 34.581 87.1274 32.9994C92.6732 26.0341 101.097 21.9831 110 21.9994C112.025 21.9994 113.667 20.3578 113.667 18.3328C113.667 16.3077 112.025 14.6661 110 14.6661Z" fill="#7442C8"/>
<path d="M25.6665 40.333C19.5914 40.333 14.6665 45.2579 14.6665 51.333C14.6665 53.358 16.3081 54.9997 18.3332 54.9997C20.3582 54.9997 21.9998 53.358 21.9998 51.333C21.9998 49.308 23.6415 47.6663 25.6665 47.6663C27.6916 47.6663 29.3332 46.0247 29.3332 43.9997C29.3332 41.9746 27.6916 40.333 25.6665 40.333Z" fill="#7442C8"/>
</g>
<defs>
<clipPath id="clip0">
<rect width="220" height="220" fill="white"/>
</clipPath>
</defs>
</svg>
