<svg id="Capa_1" enable-background="new 0 0 512 512" height="512" viewBox="0 0 512 512" width="512" xmlns="http://www.w3.org/2000/svg"><g><path d="m462 407.269h-.244v-76.769c0-27.57-22.43-50-50-50h-3.153c2.234-6.831 3.458-14.115 3.458-21.683 0-22.013 17.909-39.922 39.922-39.922h25.847l-101.471-218.895h-240.718l-101.472 218.896h25.847c22.013 0 39.922 17.909 39.922 39.922 0 7.568 1.224 14.852 3.458 21.683h-3.153c-27.57 0-50 22.43-50 50v76.769h-.243c-27.57 0-50 22.43-50 50v54.73h205.22v-37.366h101.559v37.366h205.221v-54.731c0-27.571-22.43-50-50-50zm-205.994-164.639c-.002 0-.004 0-.006 0-30.65 0-55.585-24.935-55.585-55.583v-47.067h111.17v47.067c0 14.77-5.803 28.708-16.34 39.245-10.536 10.536-24.471 16.338-39.239 16.338zm-139.161 194.639v44.731h-28.387v-44.731zm13.441-173.269h40.09v34.739h-.516c-20.256 0-37.024-15.167-39.574-34.739zm40.129-145.333h-56.717l12.825-27.667h43.892zm0 30-.039 27.667h-83.41l12.825-27.667zm-.039 57.666v27.667h-44.996c-4.089-10.732-10.745-20.207-19.219-27.667zm30.039-96.354v-79.979h40.585v49.333h30v-49.333h40.585v79.979zm197.887 8.688h-56.717v-27.667h43.892zm-11.682 115.333h-44.996v-27.667h64.215c-8.474 7.46-15.13 16.935-19.219 27.667zm-44.996-57.667-.039-27.667h70.624l12.825 27.667zm0 87.667h40.09c-2.55 19.572-19.319 34.739-39.574 34.739h-.516zm53.572 173.269h28.388v44.731h-28.388zm36.56-106.769v76.769h-44.731v-94.892c.731-.613 1.455-1.234 2.16-1.877h22.571c11.028 0 20 8.972 20 20zm-60.186-269.5h-29.985v-31h15.614zm-201.155-31v31h-29.985l14.37-31zm-90.171 300.5c0-11.028 8.972-20 20-20h22.571c.705.642 1.43 1.263 2.161 1.877v94.892h-44.732zm-50.244 126.769c0-11.028 8.972-20 20-20h.244 8.213v44.731h-28.457zm145.22 24.731h-28.375v-44.731h8.375c11.028 0 20 8.972 20 20zm133.18-37.366h-104.8c-5.612-21.473-25.173-37.366-48.38-37.366h-.245v-80.14c4.8 1.045 9.776 1.611 14.885 1.611h30.516v-76.73c11.361 9.742 25.29 16.554 40.624 19.277v38.921h30v-38.916c14.977-2.654 28.929-9.27 40.624-19.336v76.783h30.516c5.108 0 10.085-.566 14.885-1.611v80.14h-.245c-23.207.002-42.769 15.895-48.38 37.367zm28.379 12.635c0-11.028 8.972-20 20-20h8.417v44.731h-28.417zm145.221 24.731h-28.416v-44.731h8.172.244c11.028 0 20 8.972 20 20z"/><path d="m216 374.634h80v30h-80z"/></g></svg>