<svg width="176" height="176" viewBox="0 0 176 176" fill="none" xmlns="http://www.w3.org/2000/svg">
<path d="M158.812 139.999H158.729V113.609C158.729 104.132 151.018 96.4219 141.541 96.4219H140.457C141.225 94.0737 141.646 91.5698 141.646 88.9683C141.646 81.4014 147.802 75.2452 155.369 75.2452H164.254L129.373 0H46.6266L11.7456 75.2455H20.6305C28.1975 75.2455 34.3537 81.4017 34.3537 88.9687C34.3537 91.5702 34.7744 94.0741 35.5424 96.4222H34.4585C24.9813 96.4222 17.271 104.133 17.271 113.61V139.999H17.1875C7.71031 139.999 0 147.709 0 157.187V176H70.5444V163.155H105.455V176H176V157.186C176 147.709 168.29 139.999 158.812 139.999ZM88.0021 83.4041C88.0014 83.4041 88.0007 83.4041 88 83.4041C77.4641 83.4041 68.8927 74.8327 68.8927 64.2974V48.1181H107.107V64.2974C107.107 69.3746 105.113 74.1658 101.49 77.7879C97.8687 81.4096 93.0786 83.4041 88.0021 83.4041ZM40.1655 150.311V165.688H30.4074V150.311H40.1655ZM44.7858 90.75H58.5668V102.692H58.3894C51.4264 102.692 45.6624 97.4779 44.7858 90.75ZM58.5802 40.7918H39.0837L43.4923 31.2812H58.5802V40.7918ZM58.5802 51.1043L58.5668 60.6148H29.8946L34.3032 51.1043H58.5802ZM58.5668 70.927V80.4375H43.0994C41.6938 76.7484 39.4058 73.4913 36.4928 70.927H58.5668ZM68.8927 37.8053V10.3125H82.8438V27.2707H93.1562V10.3125H107.107V37.8053H68.8927ZM136.916 40.7918H117.42V31.2812H132.508L136.916 40.7918ZM132.901 80.4375H117.433V70.927H139.507C136.594 73.4913 134.306 76.7484 132.901 80.4375ZM117.433 60.6145L117.42 51.1039H141.697L146.105 60.6145H117.433ZM117.433 90.75H131.214C130.338 97.4779 124.573 102.692 117.611 102.692H117.433V90.75ZM135.849 150.311H145.607V165.688H135.849V150.311ZM148.416 113.609V139.999H133.04V107.38C133.291 107.169 133.54 106.955 133.782 106.734H141.541C145.332 106.734 148.416 109.818 148.416 113.609ZM127.727 20.9688H117.42V10.3125H122.787L127.727 20.9688ZM58.5802 10.3125V20.9688H48.2728L53.2125 10.3125H58.5802ZM27.5839 113.609C27.5839 109.818 30.668 106.734 34.4589 106.734H42.2177C42.46 106.955 42.7092 107.169 42.9605 107.38V139.999H27.5839V113.609ZM10.3125 157.186C10.3125 153.395 13.3966 150.311 17.1875 150.311H17.2714H20.0946V165.688H10.3125V157.186ZM60.2319 165.688H50.478V150.311H53.3569C57.1478 150.311 60.2319 153.395 60.2319 157.186V165.688ZM106.012 152.843H69.9875C68.0584 145.462 61.3343 139.998 53.3569 139.998H53.2727V112.45C54.9227 112.809 56.6332 113.004 58.3894 113.004H68.8792V86.6281C72.7846 89.9769 77.5727 92.3185 82.8438 93.2546V106.634H93.1562V93.2563C98.3046 92.344 103.101 90.0697 107.121 86.6095V113.004H117.611C119.367 113.004 121.077 112.809 122.727 112.45V139.998H122.643C114.666 139.999 107.941 145.462 106.012 152.843ZM115.768 157.186C115.768 153.395 118.852 150.311 122.643 150.311H125.536V165.688H115.768V157.186ZM165.688 165.688H155.92V150.311H158.729H158.812C162.603 150.311 165.688 153.395 165.688 157.186V165.688Z" fill="#7442C8"/>
<path d="M74.25 128.78H101.75V139.093H74.25V128.78Z" fill="#7442C8"/>
</svg>
