<svg width="176" height="166" viewBox="0 0 176 166" fill="none" xmlns="http://www.w3.org/2000/svg">
<path d="M54.549 82.3381C54.5429 75.6333 56.2465 68.8366 59.84 62.6124C63.4336 56.3881 68.4678 51.5144 74.2775 48.1673L47.003 0.926758C33.1613 8.90107 21.1675 20.5123 12.6057 35.3416C4.04392 50.171 -0.014741 66.3637 4.02249e-05 82.3381H54.549Z" fill="#7442C8"/>
<path d="M121.451 82.3381C121.457 75.6333 119.754 68.8366 116.16 62.6124C112.567 56.3881 107.532 51.5144 101.723 48.1673L128.997 0.926758C142.839 8.90107 154.833 20.5123 163.395 35.3416C171.956 50.171 176.015 66.3634 176 82.3381H121.451Z" fill="#7442C8"/>
<path d="M68.0022 105.364C73.825 108.689 80.5735 110.574 87.7606 110.533C94.9477 110.492 101.674 108.53 107.459 105.14L135.002 152.224C121.221 160.303 105.195 164.976 88.0714 165.074C70.9482 165.171 54.8699 160.682 40.9976 152.76L68.0022 105.364Z" fill="#7442C8"/>
<path d="M88 96.8642C98.2531 96.8642 106.565 88.5524 106.565 78.2993C106.565 68.0462 98.2531 59.7344 88 59.7344C77.7469 59.7344 69.4351 68.0462 69.4351 78.2993C69.4351 88.5524 77.7469 96.8642 88 96.8642Z" fill="#7442C8"/>
</svg>
