<svg width="220" height="220" viewBox="0 0 220 220" fill="none" xmlns="http://www.w3.org/2000/svg">
<path d="M193.962 117.551C192.057 115.03 189.981 112.511 187.775 110C189.981 107.489 192.057 104.97 193.962 102.449C208.104 83.7255 212.119 66.874 205.261 55C204.222 53.1996 202.934 51.5419 201.433 50.0457C202.874 47.2532 203.704 44.0941 203.704 40.7408C203.704 29.5092 194.564 20.3706 183.333 20.3706C172.143 20.3706 163.034 29.4452 162.969 40.6218C158.472 40.9969 153.773 41.6771 148.914 42.6508C140.053 16.5559 126.045 0 110 0C93.96 0 79.9561 16.546 71.0942 42.6271C44.0866 37.2668 22.7565 41.1125 14.7364 55C7.88118 66.874 11.8957 83.7255 26.0376 102.449C27.9424 104.97 30.0195 107.489 32.2247 110C30.0195 112.51 27.9424 115.03 26.0376 117.551C11.8957 136.275 7.88118 153.126 14.7364 164.998C15.4892 166.303 16.377 167.539 17.3773 168.688C16.6872 170.731 16.2962 172.911 16.2962 175.185C16.2962 186.417 25.4352 195.556 36.6664 195.556C46.4452 195.556 54.6312 188.626 56.5871 179.421C61.2118 179.055 66.0647 178.351 71.0839 177.343C79.9458 203.442 93.954 220 110 220C126.041 220 140.047 203.451 148.908 177.366C156.658 178.903 163.955 179.707 170.588 179.707C187.065 179.707 199.546 174.901 205.263 165C212.118 153.126 208.104 136.275 193.962 117.551ZM183.333 28.5184C190.073 28.5184 195.555 34.0007 195.555 40.7404C195.555 47.48 190.073 52.9624 183.333 52.9624C176.594 52.9624 171.111 47.48 171.111 40.7404C171.111 34.0012 176.594 28.5184 183.333 28.5184ZM148.352 76.2944C143.874 73.3111 139.231 70.4236 134.444 67.6599C129.608 64.8678 124.78 62.2896 119.986 59.9152C127.963 56.7265 135.803 54.1557 143.321 52.2543C145.402 59.6458 147.104 67.7235 148.352 76.2944ZM110 8.14816C122.207 8.14816 133.366 22.4052 140.906 44.4795C130.985 47.0194 120.57 50.6593 110.048 55.2668C99.341 50.5575 88.9232 46.9489 79.104 44.4486C86.6446 22.3919 97.7984 8.14816 110 8.14816ZM76.6729 52.2775C84.1069 54.1703 91.9487 56.7501 99.986 59.9521C95.1576 62.3369 90.3343 64.9009 85.5558 67.6599C80.7695 70.4236 76.1272 73.3107 71.6489 76.2944C72.8946 67.7325 74.5945 59.6634 76.6729 52.2775ZM21.7945 59.0743C25.9878 51.8096 35.7593 48.3381 48.8888 48.3381C54.8512 48.3381 61.5229 49.0802 68.6605 50.4814C65.9225 60.2211 63.8514 71.0437 62.5774 82.6495C53.3219 89.4515 44.9593 96.6444 37.7827 103.995C35.9204 101.846 34.1682 99.6914 32.5409 97.5373C20.6704 81.8237 16.7538 67.8051 21.7945 59.0743ZM61.6304 126.401C54.8825 121.09 48.7208 115.587 43.2999 110C48.7208 104.412 54.8825 98.9098 61.6304 93.5997C61.2896 98.9398 61.1109 104.414 61.1109 110C61.1109 115.586 61.2896 121.06 61.6304 126.401ZM36.6664 187.407C29.9267 187.407 24.4443 181.925 24.4443 175.185C24.4443 168.446 29.9267 162.963 36.6664 162.963C43.406 162.963 48.8884 168.446 48.8884 175.185C48.8888 181.925 43.4065 187.407 36.6664 187.407ZM56.6456 171.235C54.8 161.888 46.5466 154.815 36.6664 154.815C30.8759 154.815 25.6548 157.256 21.9423 161.148C21.8963 161.072 21.8387 161.002 21.7945 160.926C16.7538 152.194 20.6704 138.176 32.5405 122.463C34.1677 120.309 35.92 118.154 37.7823 116.005C44.9585 123.355 53.3215 130.549 62.577 137.35C63.8514 148.961 65.9242 159.789 68.6643 169.532C64.5118 170.337 60.4981 170.903 56.6456 171.235ZM71.6489 143.706C76.1267 146.689 80.7695 149.576 85.5558 152.34C90.3941 155.133 95.2207 157.694 100.017 160.069C92.0445 163.254 84.198 165.839 76.6784 167.743C74.5975 160.352 72.8955 152.275 71.6489 143.706ZM110 211.852C97.7929 211.852 86.6347 197.595 79.0941 175.522C89.0195 172.978 99.4459 169.327 109.961 164.726C120.662 169.433 131.08 173.055 140.895 175.555C133.354 197.609 122.201 211.852 110 211.852ZM143.329 167.716C135.888 165.822 128.047 163.261 120.002 160.054C124.839 157.667 129.667 155.098 134.444 152.34C139.231 149.576 143.873 146.689 148.352 143.706C147.106 152.265 145.407 160.332 143.329 167.716ZM149.652 132.912C143.573 137.231 137.128 141.381 130.37 145.282C123.637 149.169 116.815 152.678 110.021 155.785C103.262 152.703 96.4277 149.207 89.6292 145.282C82.872 141.381 76.4262 137.231 70.347 132.912C69.6367 125.52 69.2586 117.847 69.2586 110C69.2586 102.153 69.6367 94.4797 70.347 87.0878C76.4262 82.7698 82.872 78.6186 89.6292 74.7179C96.3667 70.8284 103.183 67.3157 109.963 64.2125C116.727 67.2964 123.566 70.7897 130.37 74.7179C137.128 78.6191 143.573 82.7703 149.652 87.0878C150.363 94.4797 150.74 102.153 150.74 110C150.74 117.847 150.363 125.52 149.652 132.912ZM164.57 48.6686C167.668 55.9732 174.913 61.111 183.333 61.111C188.246 61.111 192.758 59.363 196.28 56.4562C197.016 57.2726 197.669 58.144 198.205 59.0743C203.246 67.8051 199.329 81.8237 187.459 97.5373C185.832 99.6914 184.081 101.846 182.217 103.995C175.041 96.6444 166.679 89.4511 157.423 82.6495C156.149 71.0394 154.076 60.213 151.337 50.4707C155.924 49.5842 160.349 48.9784 164.57 48.6686ZM158.37 93.5997C165.118 98.9098 171.28 104.412 176.701 110C171.28 115.587 165.118 121.09 158.37 126.401C158.711 121.06 158.889 115.586 158.889 110C158.889 104.414 158.711 98.9398 158.37 93.5997ZM198.205 160.926C192.105 171.491 174.196 174.018 151.338 169.526C154.077 159.785 156.149 148.959 157.423 137.35C166.678 130.549 175.041 123.355 182.217 116.005C184.081 118.154 185.832 120.309 187.459 122.463C199.329 138.176 203.246 152.195 198.205 160.926Z" fill="#7442C8"/>
<path d="M110 85.5557C98.7685 85.5557 89.6299 94.6943 89.6299 105.926C89.6299 117.157 98.7689 126.296 110 126.296C121.231 126.296 130.37 117.157 130.37 105.926C130.37 94.6947 121.232 85.5557 110 85.5557ZM110 118.148C103.26 118.148 97.778 112.666 97.778 105.926C97.778 99.1866 103.26 93.7043 110 93.7043C116.74 93.7043 122.222 99.1866 122.222 105.926C122.223 112.666 116.74 118.148 110 118.148Z" fill="#7442C8"/>
</svg>
