<?xml version="1.0" encoding="iso-8859-1"?>
<!-- Generator: Adobe Illustrator 19.0.0, SVG Export Plug-In . SVG Version: 6.00 Build 0)  -->
<svg version="1.1" id="Capa_1" xmlns="http://www.w3.org/2000/svg" xmlns:xlink="http://www.w3.org/1999/xlink" x="0px" y="0px"
	 viewBox="0 0 480 480" style="enable-background:new 0 0 480 480;" xml:space="preserve">
<g>
	<g>
		<g>
			<path d="M119.996,80h208V64h-208V40c0-13.255,10.745-24,24-24h192c13.255,0,24,10.745,24,24v104h16V40
				c-0.026-22.08-17.92-39.974-40-40h-192c-22.08,0.026-39.974,17.92-40,40v104h16V80z"/>
			<path d="M359.996,384h-208v16h208v40c0,13.255-10.745,24-24,24h-192c-13.255,0-24-10.745-24-24V320h-16v120
				c0.026,22.08,17.92,39.974,40,40h192c22.08-0.026,39.974-17.92,40-40V320h-16V384z"/>
			<rect x="231.996" y="424" width="16" height="16"/>
			<rect x="175.996" y="32" width="16" height="16"/>
			<rect x="207.996" y="32" width="16" height="16"/>
			<path d="M305.892,162.208c-13.181-12.483-29.635-20.966-47.448-24.464c-9.122-1.736-18.443-2.175-27.688-1.304
				c-3.077,0.288-6.147,0.723-9.208,1.304h-0.056c-2.232,0.44-4.432,0.96-6.616,1.544c-2.704,0.736-5.352,1.6-8,2.592
				c-10.047,3.685-19.404,9.032-27.68,15.816c-1.744,1.432-3.448,2.928-5.096,4.488c-38.552,36.398-40.298,97.157-3.899,135.708
				c1.262,1.337,2.563,2.637,3.899,3.9c13.184,12.474,29.637,20.949,47.448,24.44c12.189,2.325,24.707,2.325,36.896,0h0.056
				c2.232-0.44,4.432-0.96,6.616-1.544c2.704-0.736,5.352-1.6,8-2.592c10.045-3.678,19.402-9.016,27.68-15.792
				c1.744-1.432,3.448-2.928,5.096-4.488c38.552-36.398,40.298-97.157,3.9-135.708C308.529,164.771,307.229,163.47,305.892,162.208z
				 M180.092,179.008c5.179,4.15,10.778,7.748,16.704,10.736c-2.574,11.253-4.095,22.721-4.544,34.256h-31.856
				C161.988,207.284,168.89,191.517,180.092,179.008z M160.396,240h31.856c0.456,11.535,1.983,23.003,4.56,34.256
				c-5.931,2.988-11.535,6.586-16.72,10.736C168.891,272.483,161.989,256.716,160.396,240z M205.028,303.872v0.024
				c-1.072-0.52-2.12-1.064-3.2-1.6c-2.12-1.16-4.184-2.4-6.192-3.768c-0.864-0.576-1.744-1.12-2.584-1.728
				c-0.352-0.256-0.664-0.568-1.008-0.8c2.893-2.152,5.926-4.109,9.08-5.856c1.622,4.941,3.491,9.798,5.6,14.552
				C206.18,304.352,205.596,304.144,205.028,303.872z M201.18,173.944c-3.156-1.744-6.19-3.7-9.08-5.856
				c0.32-0.264,0.632-0.576,0.976-0.832c0.856-0.616,1.752-1.168,2.624-1.752c2-1.336,4-2.592,6.152-3.736
				c1.067-0.576,2.133-1.123,3.2-1.64c0.56-0.28,1.16-0.48,1.728-0.744C204.671,164.141,202.802,169,201.18,173.944z M227.9,152.984
				c0.84-0.128,1.68-0.256,2.528-0.36c0.992-0.112,1.976-0.224,2.96-0.304c1.6-0.128,3.2-0.184,4.752-0.224
				c0.8,0,1.664-0.056,2.496-0.048c3.377,0.042,6.749,0.291,10.096,0.744c0.448,0.059,0.896,0.123,1.344,0.192
				c5.005,8.634,9.03,17.8,12,27.328c-15.695,4.836-32.481,4.836-48.176,0C218.868,170.783,222.893,161.617,227.9,152.984z
				 M252.116,311.024c-0.8,0.12-1.672,0.256-2.512,0.352c-0.84,0.096-1.76,0.2-2.632,0.28l-1.216,0.072
				c-1.272,0.088-2.536,0.152-3.808,0.176c-0.616,0-1.232,0-1.848,0c-0.616,0-1.456,0.008-2.16-0.008h0
				c-1.28,0-2.552-0.088-3.824-0.184c-0.304,0-0.616,0-0.92-0.056c-0.952-0.072-1.904-0.184-2.856-0.296
				c-0.8-0.096-1.6-0.224-2.4-0.344c-5.004-8.632-9.029-17.795-12-27.32c15.694-4.84,32.482-4.84,48.176,0
				C261.148,293.225,257.123,302.391,252.116,311.024z M268.172,268.184v-0.024c-18.377-5.532-37.975-5.532-56.352,0
				c-1.971-9.271-3.165-18.69-3.568-28.16h63.488C271.337,249.478,270.144,258.905,268.172,268.184z M208.252,224
				c0.402-9.472,1.596-18.894,3.568-28.168c18.376,5.558,37.984,5.558,56.36,0c1.966,9.274,3.157,18.696,3.56,28.168H208.252z
				 M274.956,160.096c1.08,0.552,2.128,1.096,3.176,1.664c2.12,1.16,4.184,2.4,6.192,3.768c0.864,0.576,1.744,1.12,2.584,1.728
				c0.352,0.256,0.664,0.568,1.008,0.8c-2.891,2.152-5.925,4.106-9.08,5.848c-1.648-5.008-3.515-9.856-5.6-14.544
				C273.804,159.616,274.396,159.824,274.956,160.096z M286.916,296.744L286.916,296.744c-0.856,0.616-1.752,1.168-2.624,1.752
				c-2,1.336-4.04,2.592-6.152,3.736c-1.067,0.576-2.133,1.109-3.2,1.6c-0.56,0.28-1.16,0.48-1.728,0.744
				c2.08-4.693,3.947-9.547,5.6-14.56c3.156,1.744,6.19,3.7,9.08,5.856C287.572,296.176,287.26,296.488,286.916,296.744z
				 M299.9,284.992c-5.179-4.15-10.778-7.748-16.704-10.736c2.574-11.253,4.095-22.721,4.544-34.256h31.856
				C318.004,256.716,311.102,272.483,299.9,284.992z M287.74,224c-0.456-11.535-1.983-23.003-4.56-34.256
				c5.931-2.988,11.535-6.586,16.72-10.736c11.201,12.509,18.104,28.276,19.696,44.992H287.74z"/>
			<path d="M111.996,240c2.122,0,4.156-0.844,5.656-2.344l22.624-22.632l-11.312-11.312l-6.96,6.96
				c11.764-65.199,74.155-108.517,139.354-96.753c46.288,8.352,83.424,42.984,94.982,88.578l15.512-3.92
				c-18.425-72.779-92.361-116.842-165.14-98.417c-53.901,13.646-94.057,58.741-101.388,113.857l-10.296-10.304l-11.312,11.312
				l22.624,22.632C107.84,239.156,109.874,240,111.996,240z"/>
			<path d="M373.652,226.344c-3.174-3.001-8.138-3.001-11.312,0l-22.624,22.632l11.312,11.312l6.96-6.96
				c-11.745,65.198-74.119,108.531-139.317,96.786c-46.129-8.31-83.192-42.726-94.891-88.114l-15.504,4
				c18.736,72.704,92.864,116.454,165.568,97.718c53.64-13.823,93.528-58.809,100.832-113.718l10.296,10.304l11.312-11.312
				L373.652,226.344z"/>
		</g>
	</g>
</g>
<g>
</g>
<g>
</g>
<g>
</g>
<g>
</g>
<g>
</g>
<g>
</g>
<g>
</g>
<g>
</g>
<g>
</g>
<g>
</g>
<g>
</g>
<g>
</g>
<g>
</g>
<g>
</g>
<g>
</g>
</svg>
