<svg width="144" height="223" viewBox="0 0 144 223" fill="none" xmlns="http://www.w3.org/2000/svg">
<path d="M17.3441 37.0209H112.677V29.6168H17.3441V18.5105C17.3441 12.3766 22.2689 7.40419 28.3441 7.40419H116.344C122.419 7.40419 127.344 12.3766 127.344 18.5105V66.6377H134.677V18.5105C134.665 8.29269 126.464 0.0120318 116.344 0H28.3441C18.2241 0.0120318 10.0227 8.29269 10.0107 18.5105V66.6377H17.3441V37.0209Z" fill="#7442C8"/>
<path d="M127.344 177.702H32.0107V185.106H127.344V203.616C127.344 209.75 122.419 214.723 116.344 214.723H28.3441C22.2689 214.723 17.3441 209.75 17.3441 203.616V148.085H10.0107V203.616C10.0227 213.834 18.2241 222.115 28.3441 222.127H116.344C126.464 222.115 134.665 213.834 134.677 203.616V148.085H127.344V177.702Z" fill="#7442C8"/>
<path d="M76.0106 196.212H68.6772V203.617H76.0106V196.212Z" fill="#7442C8"/>
<path d="M50.3441 14.8086H43.0107V22.2129H50.3441V14.8086Z" fill="#7442C8"/>
<path d="M65.0106 14.8086H57.6772V22.2129H65.0106V14.8086Z" fill="#7442C8"/>
<path d="M102.546 75.0643C96.505 69.2876 88.9636 65.3619 80.7993 63.7431C76.6184 62.9398 72.3463 62.7366 68.109 63.1397C66.6987 63.273 65.2916 63.4743 63.8886 63.7431H63.863C62.84 63.9468 61.8316 64.1874 60.8306 64.4577C59.5913 64.7983 58.3776 65.1981 57.164 65.6572C52.5591 67.3625 48.2705 69.8369 44.4773 72.9763C43.678 73.639 42.897 74.3313 42.1416 75.0532C24.472 91.897 23.6717 120.014 40.3546 137.855C40.933 138.473 41.5293 139.075 42.1416 139.659C48.1843 145.432 55.7253 149.354 63.8886 150.969C69.4753 152.045 75.2127 152.045 80.7993 150.969H80.825C81.848 150.766 82.8563 150.525 83.8573 150.255C85.0966 149.914 86.3103 149.514 87.524 149.055C92.1279 147.353 96.4166 144.883 100.211 141.747C101.01 141.085 101.791 140.392 102.546 139.67C120.216 122.827 121.016 94.7093 104.334 76.8691C103.755 76.2504 103.159 75.6483 102.546 75.0643ZM44.888 82.8388C47.2617 84.7593 49.8279 86.4243 52.544 87.8071C51.3642 93.0146 50.6671 98.3217 50.4613 103.66H35.8606C36.5903 95.9241 39.7537 88.6276 44.888 82.8388ZM35.8606 111.064H50.4613C50.6703 116.402 51.3702 121.709 52.5513 126.917C49.8329 128.299 47.2644 129.964 44.888 131.885C39.7542 126.096 36.5908 118.8 35.8606 111.064ZM56.317 140.622V140.633C55.8256 140.392 55.3453 140.141 54.8503 139.893C53.8786 139.356 52.9326 138.782 52.0123 138.149C51.6163 137.882 51.213 137.631 50.828 137.349C50.6666 137.231 50.5236 137.086 50.366 136.979C51.6919 135.983 53.0821 135.077 54.5276 134.269C55.2711 136.556 56.1277 138.803 57.0943 141.003C56.845 140.844 56.5773 140.748 56.317 140.622ZM54.5533 80.4954C53.1068 79.6883 51.7162 78.7831 50.3916 77.7854C50.5383 77.6632 50.6813 77.5188 50.839 77.4004C51.2313 77.1153 51.642 76.8598 52.0416 76.5896C52.9583 75.9713 53.875 75.3901 54.8613 74.8607C55.3504 74.5941 55.8389 74.341 56.328 74.1018C56.5846 73.9722 56.8596 73.8796 57.12 73.7575C56.1534 75.9588 55.2967 78.2074 54.5533 80.4954ZM66.8 70.7957C67.185 70.7365 67.57 70.6773 67.9586 70.6291C68.4133 70.5773 68.8643 70.5255 69.3153 70.4885C70.0486 70.4292 70.782 70.4033 71.4933 70.3848C71.86 70.3848 72.256 70.3589 72.6373 70.3626C74.1851 70.382 75.7306 70.4973 77.2646 70.7069C77.47 70.7342 77.6753 70.7638 77.8806 70.7957C80.1746 74.7913 82.0194 79.033 83.3806 83.4423C76.1871 85.6802 68.4935 85.6802 61.3 83.4423C62.6603 79.0325 64.5051 74.7908 66.8 70.7957ZM77.899 143.932C77.5323 143.987 77.1326 144.05 76.7476 144.095C76.3626 144.139 75.941 144.187 75.5413 144.224L74.984 144.257C74.401 144.298 73.8216 144.328 73.2386 144.339C72.9563 144.339 72.674 144.339 72.3916 144.339C72.1093 144.339 71.7243 144.343 71.4016 144.335C70.815 144.335 70.232 144.294 69.649 144.25C69.5096 144.25 69.3666 144.25 69.2273 144.224C68.791 144.191 68.3546 144.139 67.9183 144.087C67.5516 144.043 67.185 143.983 66.8183 143.928C64.5248 139.933 62.68 135.693 61.3183 131.285C68.5114 129.045 76.2059 129.045 83.399 131.285C82.0386 135.695 80.1939 139.937 77.899 143.932ZM85.258 124.107V124.096C76.8352 121.536 67.8528 121.536 59.43 124.096C58.5266 119.805 57.9794 115.446 57.7946 111.064H86.8933C86.7086 115.45 86.1618 119.813 85.258 124.107ZM57.7946 103.66C57.9789 99.2763 58.5261 94.9161 59.43 90.6244C67.8523 93.1965 76.8393 93.1965 85.2616 90.6244C86.1627 94.9161 86.7086 99.2763 86.8933 103.66H57.7946ZM88.3673 74.0869C88.8623 74.3424 89.3426 74.5941 89.823 74.857C90.7946 75.3938 91.7406 75.9676 92.661 76.6007C93.057 76.8673 93.4603 77.119 93.8453 77.4004C94.0066 77.5188 94.1496 77.6632 94.3073 77.7706C92.9823 78.7665 91.5917 79.6707 90.1456 80.4768C89.3903 78.1593 88.5346 75.9158 87.579 73.7463C87.8393 73.8648 88.1106 73.9611 88.3673 74.0869ZM93.849 137.323C93.4566 137.608 93.046 137.864 92.6463 138.134C91.7296 138.752 90.7947 139.334 89.8267 139.863C89.3376 140.13 88.849 140.376 88.36 140.603C88.1033 140.733 87.8283 140.826 87.568 140.948C88.5213 138.776 89.377 136.53 90.1347 134.21C91.5812 135.017 92.9717 135.922 94.2963 136.92C94.1496 137.06 94.0066 137.205 93.849 137.323ZM99.8 131.885C97.4263 129.964 94.8601 128.299 92.144 126.917C93.3237 121.709 94.0209 116.402 94.2266 111.064H108.827C108.098 118.8 104.934 126.096 99.8 131.885ZM94.2266 103.66C94.0176 98.3217 93.3178 93.0146 92.1366 87.8071C94.855 86.4243 97.4235 84.7593 99.8 82.8388C104.934 88.6276 108.098 95.9241 108.827 103.66H94.2266Z" fill="#7442C8"/>
<path d="M13.6775 111.063C14.6501 111.063 15.5823 110.673 16.2698 109.979L26.6392 99.5056L21.4545 94.2708L18.2645 97.4916C23.6563 67.3201 52.2522 47.2742 82.1351 52.7181C103.35 56.5831 120.371 72.6094 125.668 93.7085L132.778 91.8945C124.333 58.2152 90.446 37.8246 57.089 46.351C32.3844 52.6658 13.9795 73.534 10.6195 99.0396L5.90049 94.2713L0.71582 99.506L11.0852 109.979C11.7727 110.673 12.7049 111.063 13.6775 111.063Z" fill="#7442C8"/>
<path d="M133.603 104.744C132.149 103.355 129.873 103.355 128.419 104.744L118.049 115.217L123.234 120.452L126.424 117.231C121.041 147.403 92.4528 167.456 62.5704 162.021C41.4279 158.175 24.4407 142.249 19.0787 121.244L11.9727 123.095C20.56 156.741 54.5353 176.987 87.858 168.317C112.443 161.92 130.725 141.101 134.073 115.691L138.792 120.459L143.976 115.225L133.603 104.744Z" fill="#7442C8"/>
</svg>
