<svg height="512" viewBox="0 0 60 60" width="512" xmlns="http://www.w3.org/2000/svg"><g id="Page-1" fill="none" fill-rule="evenodd"><g id="027---Pantheon" fill="rgb(0,0,0)" fill-rule="nonzero" transform="translate(-1)"><path id="Shape" d="m58.979 19.59-7.979-2.751v-2.839c0-1.6568542-1.3431458-3-3-3h-.438c-2.7945348-6.67331492-9.3271946-11.01211808-16.562-11-7.224221.03089076-13.7382297 4.35469574-16.572 11h-.428c-1.6568542 0-3 1.3431458-3 3v2.839l-7.979 2.751c-1.2095522.4175776-2.02110054 1.5563955-2.021 2.836v2.574c.00185515 1.0273655.5303387 1.9820333 1.4 2.529-.25917175.4471277-.39705621.9541978-.4 1.471v1c.00155063 1.2709888.80229835 2.4036464 2 2.829v16.355c-1.19435087.4222546-1.99474861 1.5492146-2 2.816v1c.00294379.5168022.14082825 1.0238723.4 1.471-1.13083205.7106322-1.65422321 2.0843307-1.2829609 3.367274s1.54738252 2.1648317 2.8829609 2.161726h54c1.3355784.0031057 2.5116986-.8787827 2.8829609-2.161726s-.1521289-2.6566418-1.2829609-3.367274c.2591718-.4471277.3970562-.9541978.4-1.471v-1c-.0015506-1.2709888-.8022983-2.4036464-2-2.829v-16.355c1.1943509-.4222546 1.9947486-1.5492146 2-2.816v-1c-.0029438-.5168022-.1408282-1.0238723-.4-1.471.8696613-.5469667 1.3981449-1.5016345 1.4-2.529v-2.574c.0001005-1.2796045-.8114478-2.4184224-2.021-2.836zm-45.979-5.59c0-.5522847.4477153-1 1-1h5c.5522847 0 1-.4477153 1-1s-.4477153-1-1-1h-2.381c2.6949581-5.48812229 8.2669448-8.975215 14.381-9 6.1221361-.00326693 11.7077392 3.49234729 14.381 9h-2.381c-.5522847 0-1 .4477153-1 1s.4477153 1 1 1h5c.5522847 0 1 .4477153 1 1v2.149l-17.022-5.87c-.6342884-.2169914-1.3227116-.2169914-1.957 0l-17.021 5.87zm-10 8.426c-.000269-.4268671.27045266-.8068414.674-.946l27-9.31c.1049874-.0356866.2151132-.0539283.326-.054.1109093-.0002028.2210798.0180463.326.054l27 9.31c.4035473.1391586.674269.5191329.674.946v2.574c0 .5522847-.4477153 1-1 1h-54c-.55228475 0-1-.4477153-1-1zm47 10.4v16.358c-1.1943509.4222546-1.9947486 1.5492146-2 2.816v1c.0033144.3414397.0655622.679743.184 1h-2.368c.1184378-.320257.1806856-.6585603.184-1v-1c-.0015506-1.2709888-.8022983-2.4036464-2-2.829v-16.355c1.1943509-.4222546 1.9947486-1.5492146 2-2.816v-1c-.0033144-.3414397-.0655622-.679743-.184-1h2.368c-.1184378.320257-.1806856.6585603-.184 1v1c.0015506 1.2709888.8022983 2.4036464 2 2.829zm-38 16.345v-16.355c1.1943509-.4222546 1.9947486-1.5492146 2-2.816v-1c-.0033144-.3414397-.0655622-.679743-.184-1h2.368c-.1184378.320257-.1806856.6585603-.184 1v1c.0015506 1.2709888.8022983 2.4036464 2 2.829v16.355c-1.1943509.4222546-1.9947486 1.5492146-2 2.816v1c.0033144.3414397.0655622.679743.184 1h-2.368c.1184378-.320257.1806856-.6585603.184-1v-1c-.0015506-1.2709888-.8022983-2.4036464-2-2.829zm6 3.829v-1c0-.5522847.4477153-1 1-1h2c.5522847 0 1-.4477153 1-1s-.4477153-1-1-1h-1v-17c0-.5522847-.4477153-1-1-1s-1-.4477153-1-1v-1c0-.5522847.4477153-1 1-1h6c.5522847 0 1 .4477153 1 1v1c0 .5522847-.4477153 1-1 1h-2c-.5522847 0-1 .4477153-1 1s.4477153 1 1 1h1v17c0 .5522847.4477153 1 1 1s1 .4477153 1 1v1c0 .5522847-.4477153 1-1 1h-6c-.5522847 0-1-.4477153-1-1zm8-3.829v-16.355c1.1943509-.4222546 1.9947486-1.5492146 2-2.816v-1c-.0033144-.3414397-.0655622-.679743-.184-1h6.368c-.1184378.320257-.1806856.6585603-.184 1v1c.0015506 1.2709888.8022983 2.4036464 2 2.829v16.355c-1.1943509.4222546-1.9947486 1.5492146-2 2.816v1c.0033144.3414397.0655622.679743.184 1h-6.368c.1184378-.320257.1806856-.6585603.184-1v-1c-.0015506-1.2709888-.8022983-2.4036464-2-2.829zm10 3.829v-1c0-.5522847.4477153-1 1-1h2c.5522847 0 1-.4477153 1-1s-.4477153-1-1-1h-1v-17c0-.5522847-.4477153-1-1-1s-1-.4477153-1-1v-1c0-.5522847.4477153-1 1-1h6c.5522847 0 1 .4477153 1 1v1c0 .5522847-.4477153 1-1 1h-2c-.5522847 0-1 .4477153-1 1s.4477153 1 1 1h1v17c0 .5522847.4477153 1 1 1s1 .4477153 1 1v1c0 .5522847-.4477153 1-1 1h-6c-.5522847 0-1-.4477153-1-1zm-32-1c0-.5522847.44771525-1 1-1h2c.55228475 0 1-.4477153 1-1s-.44771525-1-1-1h-1v-17c0-.5522847-.44771525-1-1-1s-1-.4477153-1-1v-1c0-.5522847.44771525-1 1-1h6c.5522847 0 1 .4477153 1 1v1c0 .5522847-.4477153 1-1 1h-2c-.55228475 0-1 .4477153-1 1s.44771525 1 1 1h1v17c0 .5522847.4477153 1 1 1s1 .4477153 1 1v1c0 .5522847-.4477153 1-1 1h-6c-.55228475 0-1-.4477153-1-1zm54 6h-54c-.55228475 0-1-.4477153-1-1s.44771525-1 1-1h54c.5522847 0 1 .4477153 1 1s-.4477153 1-1 1zm0-28c0 .5522847-.4477153 1-1 1h-2c-.5522847 0-1 .4477153-1 1s.4477153 1 1 1h1v17c0 .5522847.4477153 1 1 1s1 .4477153 1 1v1c0 .5522847-.4477153 1-1 1h-6c-.5522847 0-1-.4477153-1-1v-1c0-.5522847.4477153-1 1-1h2c.5522847 0 1-.4477153 1-1s-.4477153-1-1-1h-1v-17c0-.5522847-.4477153-1-1-1s-1-.4477153-1-1v-1c0-.5522847.4477153-1 1-1h6c.5522847 0 1 .4477153 1 1z"/><path id="Shape" d="m8.8 23.945 22.2-7.656 22.2 7.656c.3404398.1276109.7233174.060396.9999358-.1755406.2766183-.2359366.4033895-.6034175.3310797-.959725-.0723097-.3563076-.3323063-.6452971-.6790155-.7547344l-22.53-7.769c-.2110317-.0740152-.4409683-.0740152-.652 0l-22.526 7.769c-.34670919.1094373-.60670576.3984268-.67901552.7547344-.07230976.3563075.05446143.7237884.33107976.959725s.65949599.3031515.99993576.1755406z"/><path id="Shape" d="m32 5c0-.55228475-.4477153-1-1-1-3.9656349.01103737-7.7423389 1.69566523-10.4 4.639-.2509074.26298249-.339362.64140014-.2310267.98835512.1083353.34695499.3963991.60780628.752368.68129408s.7237822-.0519613.9606587-.3276492c2.2786426-2.52470526 5.5170832-3.97034688 8.918-3.981.2652165 0 .5195704-.10535684.7071068-.29289322s.2928932-.44189029.2928932-.70710678z"/><path id="Shape" d="m35 21h-9c-.5522847 0-1 .4477153-1 1s.4477153 1 1 1h9c.5522847 0 1-.4477153 1-1s-.4477153-1-1-1z"/></g></g></svg>