<svg width="264" height="264" viewBox="0 0 264 264" fill="none" xmlns="http://www.w3.org/2000/svg">
<path d="M255.107 86.1961L219.999 74.0917V61.6001C219.999 54.31 214.09 48.4001 206.799 48.4001H204.872C192.576 19.0375 163.833 -0.0532081 131.999 0.000111402C100.213 0.136031 71.5513 19.1608 59.0827 48.4001H57.1995C49.9093 48.4001 43.9995 54.31 43.9995 61.6001V74.0917L8.89188 86.1961C3.56985 88.0335 -0.000962456 93.0443 -0.00052008 98.6745V110C0.00764258 114.521 2.33297 118.721 6.15948 121.128C5.01912 123.095 4.41243 125.326 4.39948 127.6V132C4.4063 137.592 7.92959 142.576 13.1995 144.448V216.41C7.94434 218.268 4.42259 223.226 4.39948 228.8V233.2C4.41243 235.474 5.01912 237.705 6.15948 239.673C1.18382 242.799 -1.1191 248.844 0.514452 254.489C2.14801 260.133 7.32294 264.014 13.1995 264H250.799C256.676 264.014 261.851 260.133 263.485 254.489C265.118 248.844 262.815 242.799 257.839 239.673C258.98 237.705 259.587 235.474 259.599 233.2V228.8C259.593 223.208 256.069 218.224 250.799 216.353V144.391C256.055 142.533 259.576 137.574 259.599 132V127.6C259.587 125.326 258.98 123.095 257.839 121.128C261.666 118.721 263.991 114.521 263.999 110V98.6745C264 93.0443 260.429 88.0335 255.107 86.1961ZM52.7995 61.6001C52.7995 59.1701 54.7694 57.2001 57.1995 57.2001H79.1995C81.6295 57.2001 83.5995 55.2302 83.5995 52.8001C83.5995 50.3701 81.6295 48.4001 79.1995 48.4001H68.7231C80.5809 24.2524 105.098 8.90917 131.999 8.80011C158.937 8.78574 183.514 24.1664 195.276 48.4001H184.799C182.369 48.4001 180.399 50.3701 180.399 52.8001C180.399 55.2302 182.369 57.2001 184.799 57.2001H206.799C209.23 57.2001 211.199 59.1701 211.199 61.6001V71.0557L136.303 45.2277C133.512 44.273 130.483 44.273 127.692 45.2277L52.7995 71.0557V61.6001ZM8.79948 98.6745C8.7983 96.7963 9.98947 95.1244 11.7651 94.5121L130.565 53.5481C131.027 53.3911 131.512 53.3108 131.999 53.3105C132.487 53.3096 132.972 53.3899 133.434 53.5481L252.234 94.5121C254.009 95.1244 255.201 96.7963 255.199 98.6745V110C255.199 112.43 253.23 114.4 250.799 114.4H13.1995C10.7694 114.4 8.79948 112.43 8.79948 110V98.6745ZM215.599 144.435V216.41C210.344 218.268 206.823 223.226 206.799 228.8V233.2C206.814 234.702 207.088 236.191 207.609 237.6H197.19C197.711 236.191 197.985 234.702 197.999 233.2V228.8C197.993 223.208 194.469 218.224 189.199 216.353V144.391C194.455 142.533 197.976 137.574 197.999 132V127.6C197.985 126.098 197.711 124.609 197.19 123.2H207.609C207.088 124.609 206.814 126.098 206.799 127.6V132C206.806 137.592 210.33 142.576 215.599 144.448V144.435ZM48.3995 216.353V144.391C53.6546 142.533 57.1764 137.574 57.1995 132V127.6C57.1849 126.098 56.911 124.609 56.3899 123.2H66.8091C66.288 124.609 66.0141 126.098 65.9995 127.6V132C66.0063 137.592 69.5296 142.576 74.7995 144.448V216.41C69.5443 218.268 66.0226 223.226 65.9995 228.8V233.2C66.0141 234.702 66.288 236.191 66.8091 237.6H56.3899C56.911 236.191 57.1849 234.702 57.1995 233.2V228.8C57.1927 223.208 53.6694 218.224 48.3995 216.353ZM74.7995 233.2V228.8C74.7995 226.37 76.7694 224.4 79.1995 224.4H87.9995C90.4295 224.4 92.3995 222.43 92.3995 220C92.3995 217.57 90.4295 215.6 87.9995 215.6H83.5995V140.8C83.5995 138.37 81.6295 136.4 79.1995 136.4C76.7694 136.4 74.7995 134.43 74.7995 132V127.6C74.7995 125.17 76.7694 123.2 79.1995 123.2H105.599C108.03 123.2 109.999 125.17 109.999 127.6V132C109.999 134.43 108.03 136.4 105.599 136.4H96.7995C94.3694 136.4 92.3995 138.37 92.3995 140.8C92.3995 143.23 94.3694 145.2 96.7995 145.2H101.199V220C101.199 222.43 103.169 224.4 105.599 224.4C108.03 224.4 109.999 226.37 109.999 228.8V233.2C109.999 235.63 108.03 237.6 105.599 237.6H79.1995C76.7694 237.6 74.7995 235.63 74.7995 233.2ZM109.999 216.353V144.391C115.255 142.533 118.776 137.574 118.799 132V127.6C118.785 126.098 118.511 124.609 117.99 123.2H146.009C145.488 124.609 145.214 126.098 145.199 127.6V132C145.206 137.592 148.73 142.576 153.999 144.448V216.41C148.744 218.268 145.223 223.226 145.199 228.8V233.2C145.214 234.702 145.488 236.191 146.009 237.6H117.99C118.511 236.191 118.785 234.702 118.799 233.2V228.8C118.793 223.208 115.269 218.224 109.999 216.353ZM153.999 233.2V228.8C153.999 226.37 155.969 224.4 158.399 224.4H167.199C169.63 224.4 171.599 222.43 171.599 220C171.599 217.57 169.63 215.6 167.199 215.6H162.799V140.8C162.799 138.37 160.83 136.4 158.399 136.4C155.969 136.4 153.999 134.43 153.999 132V127.6C153.999 125.17 155.969 123.2 158.399 123.2H184.799C187.23 123.2 189.199 125.17 189.199 127.6V132C189.199 134.43 187.23 136.4 184.799 136.4H175.999C173.569 136.4 171.599 138.37 171.599 140.8C171.599 143.23 173.569 145.2 175.999 145.2H180.399V220C180.399 222.43 182.369 224.4 184.799 224.4C187.23 224.4 189.199 226.37 189.199 228.8V233.2C189.199 235.63 187.23 237.6 184.799 237.6H158.399C155.969 237.6 153.999 235.63 153.999 233.2ZM13.1995 228.8C13.1995 226.37 15.1694 224.4 17.5995 224.4H26.3995C28.8295 224.4 30.7995 222.43 30.7995 220C30.7995 217.57 28.8295 215.6 26.3995 215.6H21.9995V140.8C21.9995 138.37 20.0295 136.4 17.5995 136.4C15.1694 136.4 13.1995 134.43 13.1995 132V127.6C13.1995 125.17 15.1694 123.2 17.5995 123.2H43.9995C46.4295 123.2 48.3995 125.17 48.3995 127.6V132C48.3995 134.43 46.4295 136.4 43.9995 136.4H35.1995C32.7694 136.4 30.7995 138.37 30.7995 140.8C30.7995 143.23 32.7694 145.2 35.1995 145.2H39.5995V220C39.5995 222.43 41.5694 224.4 43.9995 224.4C46.4295 224.4 48.3995 226.37 48.3995 228.8V233.2C48.3995 235.63 46.4295 237.6 43.9995 237.6H17.5995C15.1694 237.6 13.1995 235.63 13.1995 233.2V228.8ZM250.799 255.2H13.1995C10.7694 255.2 8.79948 253.23 8.79948 250.8C8.79948 248.37 10.7694 246.4 13.1995 246.4H250.799C253.23 246.4 255.199 248.37 255.199 250.8C255.199 253.23 253.23 255.2 250.799 255.2ZM250.799 132C250.799 134.43 248.83 136.4 246.399 136.4H237.599C235.169 136.4 233.199 138.37 233.199 140.8C233.199 143.23 235.169 145.2 237.599 145.2H241.999V220C241.999 222.43 243.969 224.4 246.399 224.4C248.83 224.4 250.799 226.37 250.799 228.8V233.2C250.799 235.63 248.83 237.6 246.399 237.6H219.999C217.569 237.6 215.599 235.63 215.599 233.2V228.8C215.599 226.37 217.569 224.4 219.999 224.4H228.799C231.23 224.4 233.199 222.43 233.199 220C233.199 217.57 231.23 215.6 228.799 215.6H224.399V140.8C224.399 138.37 222.43 136.4 219.999 136.4C217.569 136.4 215.599 134.43 215.599 132V127.6C215.599 125.17 217.569 123.2 219.999 123.2H246.399C248.83 123.2 250.799 125.17 250.799 127.6V132Z" fill="#DCDCDC"/>
<path d="M34.3205 105.358L132 71.6717L229.68 105.358C231.178 105.92 232.863 105.624 234.08 104.586C235.297 103.548 235.855 101.931 235.537 100.363C235.219 98.7952 234.075 97.5236 232.549 97.0421L133.417 62.8585C132.489 62.5328 131.477 62.5328 130.548 62.8585L31.4341 97.0421C29.9086 97.5236 28.7646 98.7952 28.4464 100.363C28.1283 101.931 28.686 103.548 29.9032 104.586C31.1203 105.624 32.8049 105.92 34.3029 105.358H34.3205Z" fill="#DCDCDC"/>
<path d="M136.4 21.9996C136.4 19.5696 134.43 17.5996 132 17.5996C114.551 17.6482 97.9338 25.0605 86.24 38.0112C85.136 39.1683 84.7468 40.8334 85.2235 42.36C85.7002 43.8866 86.9677 45.0343 88.5339 45.3577C90.1002 45.681 91.7186 45.129 92.7608 43.916C102.787 32.8073 117.036 26.4465 132 26.3996C133.167 26.3996 134.286 25.936 135.111 25.1109C135.936 24.2857 136.4 23.1666 136.4 21.9996Z" fill="#DCDCDC"/>
<path d="M149.601 92.4004H110.001C107.571 92.4004 105.601 94.3703 105.601 96.8004C105.601 99.2304 107.571 101.2 110.001 101.2H149.601C152.031 101.2 154.001 99.2304 154.001 96.8004C154.001 94.3703 152.031 92.4004 149.601 92.4004Z" fill="#DCDCDC"/>
</svg>
