<?xml version="1.0" encoding="iso-8859-1"?>
<!-- Generator: Adobe Illustrator 19.0.0, SVG Export Plug-In . SVG Version: 6.00 Build 0)  -->
<svg version="1.1" id="Layer_1" xmlns="http://www.w3.org/2000/svg" xmlns:xlink="http://www.w3.org/1999/xlink" x="0px" y="0px"
	 viewBox="0 0 512 512" style="enable-background:new 0 0 512 512;" xml:space="preserve">
<g>
	<g>
		<path d="M470.71,0c-22.768,0-41.29,18.523-41.29,41.29c0,3.702,0.498,7.288,1.415,10.705l-59.788,29.894
			c-7.565-9.625-19.301-15.825-32.465-15.825c-22.768,0-41.29,18.523-41.29,41.29c0,16.773,10.058,31.232,24.456,37.689
			l-15.486,69.685c-0.238-0.004-0.473-0.018-0.712-0.018c-19.905,0-36.566,14.159-40.439,32.934l-183.36,0.095
			c-3.838-18.824-20.52-33.03-40.459-33.03C18.522,214.71,0,233.232,0,256c0,22.086,17.431,40.176,39.259,41.239l20.666,134.775
			c-15.688,5.857-26.893,20.99-26.893,38.696c0,22.768,18.522,41.29,41.29,41.29c22.768,0,41.29-18.522,41.29-41.29
			c0-1.678-0.112-3.33-0.308-4.956l121.462-40.488c7.148,12.343,20.49,20.669,35.75,20.669c22.768,0,41.29-18.522,41.29-41.29
			c0-16.773-10.058-31.232-24.456-37.689l15.486-69.685c0.238,0.004,0.473,0.018,0.712,0.018c22.768,0,41.29-18.522,41.29-41.29
			c0-16.773-10.058-31.232-24.456-37.689l15.484-69.685c0.238,0.004,0.473,0.018,0.712,0.018c22.768,0,41.29-18.523,41.29-41.29
			c0-3.702-0.498-7.288-1.415-10.705l59.788-29.894c7.567,9.627,19.302,15.827,32.466,15.827c22.768,0,41.29-18.523,41.29-41.29
			C512,18.523,493.478,0,470.71,0z M16.516,256c0-13.661,11.113-24.774,24.774-24.774c13.661,0,24.774,11.113,24.774,24.774
			c0,13.661-11.113,24.774-24.774,24.774C27.629,280.774,16.516,269.661,16.516,256z M74.323,495.484
			c-13.661,0-24.774-11.113-24.774-24.774c0-13.661,11.113-24.774,24.774-24.774c13.661,0,24.774,11.113,24.774,24.774
			C99.097,484.371,87.984,495.484,74.323,495.484z M231.226,404.645c0,1.678,0.112,3.33,0.308,4.956l-121.462,40.488
			c-6.845-11.821-19.373-19.955-33.827-20.621L55.586,294.736c13.236-4.9,23.297-16.398,26.165-30.482
			c31.264-0.017,152.011-0.078,183.321-0.095c2.658,13.208,11.643,24.147,23.642,29.529l-15.486,69.685
			c-0.238-0.004-0.473-0.018-0.712-0.018C249.748,363.355,231.226,381.877,231.226,404.645z M297.29,404.645
			c0,13.661-11.114,24.774-24.774,24.774c-13.66,0-24.774-11.113-24.774-24.774c0-13.661,11.114-24.774,24.774-24.774
			C286.176,379.871,297.29,390.984,297.29,404.645z M330.323,256c0,13.661-11.114,24.774-24.774,24.774
			c-13.66,0-24.774-11.113-24.774-24.774c0-13.661,11.114-24.774,24.774-24.774C319.208,231.226,330.323,242.339,330.323,256z
			 M338.581,132.129c-13.66,0-24.774-11.114-24.774-24.774c0-13.66,11.114-24.774,24.774-24.774
			c13.66,0,24.774,11.114,24.774,24.774C363.355,121.015,352.241,132.129,338.581,132.129z M470.71,66.065
			c-13.66,0-24.774-11.114-24.774-24.774c0-13.66,11.114-24.774,24.774-24.774c13.66,0,24.774,11.114,24.774,24.774
			C495.484,54.95,484.37,66.065,470.71,66.065z"/>
	</g>
</g>
<g>
	<g>
		<circle cx="50.099" cy="50.099" r="8.809"/>
	</g>
</g>
<g>
	<g>
		<circle cx="83.131" cy="83.131" r="8.809"/>
	</g>
</g>
<g>
	<g>
		<circle cx="149.196" cy="149.196" r="8.809"/>
	</g>
</g>
<g>
	<g>
		<circle cx="248.292" cy="83.131" r="8.809"/>
	</g>
</g>
<g>
	<g>
		<circle cx="461.901" cy="461.901" r="8.809"/>
	</g>
</g>
<g>
	<g>
		<circle cx="461.901" cy="263.708" r="8.809"/>
	</g>
</g>
<g>
	<g>
		<circle cx="428.869" cy="296.74" r="8.809"/>
	</g>
</g>
<g>
</g>
<g>
</g>
<g>
</g>
<g>
</g>
<g>
</g>
<g>
</g>
<g>
</g>
<g>
</g>
<g>
</g>
<g>
</g>
<g>
</g>
<g>
</g>
<g>
</g>
<g>
</g>
<g>
</g>
</svg>
