<svg width="132" height="176" viewBox="0 0 132 176" fill="none" xmlns="http://www.w3.org/2000/svg">
<path d="M66 3.43457C63.1998 7.1681 21.0282 63.3969 4.12402 85.9359C7.12707 90.1403 65.5418 171.921 66 172.562C66.4173 171.978 124.812 90.2259 127.876 85.9359C126.216 83.7224 66.7439 4.4263 66 3.43457Z" fill="#FF9171"/>
<path d="M45.3747 85.9355H4.12402L39.2421 135.103L66 106.561L45.3747 85.9355Z" fill="#9DE3D1"/>
<path d="M86.6253 85.9355L66 106.561L92.7579 135.103L127.876 85.9355H86.6253Z" fill="#9DE3D1"/>
<path d="M127.876 85.9355V172.562L92.7578 135.103L127.876 85.9355Z" fill="#FFDA8F"/>
<path d="M127.876 76.4757V85.9359C126.209 83.7138 66.7411 4.42252 66 3.43457C101.706 9.38498 127.876 40.2783 127.876 76.4757Z" fill="#FFDA8F"/>
<path d="M92.7579 135.104L127.876 172.563H66L92.7579 135.104Z" fill="#9DE3D1"/>
<path d="M65.9999 3.43457L92.5171 38.7932L65.9999 65.3105L39.6991 39.0098L39.4551 38.8276L65.9999 3.43457Z" fill="#9DE3D1"/>
<path d="M66.0003 106.561C77.3914 106.561 86.6256 97.3269 86.6256 85.9359C86.6256 74.5448 77.3914 65.3105 66.0003 65.3105C54.6093 65.3105 45.375 74.5448 45.375 85.9359C45.375 97.3269 54.6093 106.561 66.0003 106.561Z" fill="#EEFAFF"/>
<path d="M66 3.43457C63.1998 7.1681 21.0282 63.3969 4.12402 85.9359V76.4757C4.12402 40.2783 30.2941 9.38498 66 3.43457Z" fill="#FFDA8F"/>
<path d="M39.2421 135.104L66 172.563H4.12402L39.2421 135.104Z" fill="#9DE3D1"/>
<path d="M4.12402 85.9355L39.2421 135.103L4.12402 172.562V85.9355Z" fill="#FFDA8F"/>
<path d="M131.314 76.4758C131.314 38.6579 103.958 6.27509 66.5652 0.0438383C66.2245 -0.0128814 65.7962 -0.0163189 65.4352 0.0438383C28.1316 6.26031 0.686523 38.5671 0.686523 76.4758V172.562C0.686523 174.457 2.23789 176 4.12408 176H127.876C129.764 176 131.314 174.458 131.314 172.562V148.156C131.314 146.257 129.774 144.718 127.876 144.718C125.978 144.718 124.438 146.257 124.438 148.156V163.869L97.1931 134.808L124.438 96.6632V148.156C124.438 150.054 125.978 144.718 127.876 144.718C129.774 144.718 131.314 150.054 131.314 148.156V76.4758ZM89.8133 82.4984C88.4864 73.2654 81.9018 65.7083 73.1983 62.9738L92.1454 44.0266L121.001 82.4984H89.8133ZM87.9784 38.4705L66 60.4492L44.0207 38.4698L66 9.16401L87.9784 38.4705ZM39.8537 44.0256L58.8018 62.9738C50.0979 65.7083 43.5136 73.2651 42.1867 82.4984H10.9988L39.8537 44.0256ZM42.1864 89.3735C43.525 98.6879 50.2151 106.294 59.0328 108.967L39.6027 129.692L10.8036 89.3735H42.1864ZM34.8077 134.807L7.56163 163.869V96.6628L34.8077 134.807ZM38.8829 140.512L59.3205 169.125H12.0586L38.8829 140.512ZM66 166.648L43.6779 135.397L66 111.587L88.3221 135.397L66 166.648ZM93.1179 140.513L119.941 169.124H72.6799L93.1179 140.513ZM66 103.124C56.5227 103.124 48.8123 95.4133 48.8123 85.9359C48.8123 76.4586 56.5227 68.7482 66 68.7482C75.4774 68.7482 83.1878 76.4586 83.1878 85.9359C83.1878 95.4133 75.4774 103.124 66 103.124ZM124.429 75.6105C124.372 75.5346 75.3454 10.1661 74.4135 8.92373C103.613 17.7531 124.057 44.4354 124.429 75.6105ZM57.5859 8.92407L7.57126 75.6102C7.94354 44.4354 28.3867 17.7534 57.5859 8.92407ZM72.9669 108.967C81.7846 106.294 88.4748 98.6875 89.8133 89.3735H121.196L92.3973 129.692L72.9669 108.967Z" fill="black"/>
</svg>
