<svg id="_x33_0" enable-background="new 0 0 64 64" height="512" viewBox="0 0 64 64" width="512" xmlns="http://www.w3.org/2000/svg"><g><g><g><path d="m51.91 53.97c-.59 1.05-.91 2.25-.91 3.5v.53 4c-1.92-.32-3.72-1.03-5.32-2.06-1.59-1.03-2.98-2.38-4.05-4-1.51-2.26-2.68-4.72-3.48-7.3-.81-2.57-1.25-5.26-1.29-7.98l-.01-.19v-.01c.06-.5.1-.98.12-1.46.13-.33.25-.66.37-1h4.09c2.66 5.91 7.52 10.58 13.57 13-1.22.62-2.22 1.55-2.92 2.67-.06.1-.12.2-.17.3z" fill="#e6e9ed"/></g><g><path d="m36.97 39c-2.07 5.28-5.57 9.95-10.2 13.42l-.04.03h-.01c-.25-.5-.65-.91-1.17-1.17-.36-.19-.76-.28-1.17-.28h-2.58c-.53 0-1.04-.14-1.49-.4l-1.55-.88c-.03-.22-.07-.44-.11-.66-.14-.7-.28-1.42-.43-2.15l.1-.04c7.39-3.08 13.09-9.2 15.65-16.78l4.99.45c-.23 2.57-.78 5.07-1.62 7.46-.12.34-.24.67-.37 1z" fill="#e6e9ed"/></g><g><path d="m41.46 20.97-.18-.12c-.8-.53-1.28-1.43-1.28-2.38 0-.31.05-.62.15-.91l.62-1.86c.15-.46.23-.95.23-1.44 0-1.42-.67-2.76-1.81-3.62l-1.24-.92c.03-.17.05-.34.05-.52 0-.77-.31-1.51-.85-2.05l-1.52-1.52c-1.04-1.04-2.46-1.63-3.94-1.63-1.1 0-2.18.33-3.1.94l-1.59 1.06-1.59-1.06c-.92-.61-2-.94-3.1-.94-1.48 0-2.9.59-3.94 1.63l-1.52 1.52c-.54.54-.85 1.28-.85 2.05 0 .18.02.35.05.52l-1.24.92c-1.14.86-1.81 2.2-1.81 3.62 0 .49.08.98.23 1.44l.62 1.86c.1.29.15.6.15.91 0 .95-.48 1.85-1.28 2.38l-.18.12c-.96.64-1.54 1.73-1.54 2.89 0 1.31.74 2.51 1.92 3.1 1.27.64 2.08 1.94 2.08 3.37v.87l5.67-1.13-.6-.24c-1.25-.5-2.07-1.71-2.07-3.06 0-.14.01-.28.03-.42l-.31-.2c-1.07-.72-1.72-1.93-1.72-3.22 0-1.21.57-2.36 1.55-3.09l2.45-1.84v-1.95c0-2.24 1.81-4.05 4.05-4.05.62 0 1.24.15 1.8.43l1.15.57 1.15-.57c.56-.28 1.18-.43 1.8-.43 1.12 0 2.13.45 2.87 1.18.73.74 1.18 1.75 1.18 2.87v1.95l2.45 1.84c.98.73 1.55 1.88 1.55 3.09 0 1.29-.65 2.5-1.72 3.22l-.31.2c.02.14.03.28.03.42 0 1.35-.82 2.56-2.07 3.06l-.52.21.56.05 4.99.45v-.21c.02-1.43.84-2.73 2.12-3.37 1.18-.59 1.92-1.79 1.92-3.1 0-1.16-.58-2.25-1.54-2.89z" fill="#656d78"/></g><g><path d="m36.45 19.84-2.45-1.84v3c0 .84-.15 1.65-.42 2.39-.37 1.03-.98 1.95-1.76 2.68-.44.43-.95.8-1.49 1.09-.99.54-2.12.84-3.33.84s-2.34-.3-3.33-.84c-.54-.29-1.05-.66-1.49-1.09-.05-.04-.09-.08-.13-.12-.72-.72-1.28-1.59-1.63-2.56-.27-.74-.42-1.55-.42-2.39v-3l-2.45 1.84c-.98.73-1.55 1.88-1.55 3.09 0 1.29.65 2.5 1.72 3.22l.31.2c-.02.14-.03.28-.03.42 0 1.35.82 2.56 2.07 3.06l.6.24 1.47.59c.1.32.26.61.46.87.39.49.93.85 1.57 1.01 1.16.29 2.14 1.08 2.68 2.15l.15.31.15-.31c.54-1.07 1.52-1.86 2.68-2.15.64-.16 1.18-.52 1.57-1.01l.46-.87 1.55-.62.52-.21c1.25-.5 2.07-1.71 2.07-3.06 0-.14-.01-.28-.03-.42l.31-.2c1.07-.72 1.72-1.93 1.72-3.22 0-1.21-.57-2.36-1.55-3.09z" fill="#838f9b"/></g><g><path d="m23.67 27.16c-.54-.29-1.05-.66-1.49-1.09l.18-.85c.37-1.87 2.01-3.22 3.92-3.22h.72.72c1.91 0 3.55 1.35 3.92 3.22l.18.85c-.44.43-.95.8-1.49 1.09-.99.54-2.12.84-3.33.84s-2.34-.3-3.33-.84z" fill="#838f9b"/></g><g><path d="m26.28 22c-1.91 0-3.55 1.35-3.92 3.22l-.18.85c-.05-.04-.09-.08-.13-.12-.72-.72-1.28-1.59-1.63-2.56-.27-.74-.42-1.55-.42-2.39v-3-1.95c0-2.24 1.81-4.05 4.05-4.05.62 0 1.24.15 1.8.43l1.15.57 1.15-.57c.56-.28 1.18-.43 1.8-.43 1.12 0 2.13.45 2.87 1.18.73.74 1.18 1.75 1.18 2.87v1.95 3c0 .84-.15 1.65-.42 2.39-.37 1.03-.98 1.95-1.76 2.68l-.18-.85c-.37-1.87-2.01-3.22-3.92-3.22h-.72z" fill="#f0d0b4"/></g><g><path d="m36.85 40.46v.01c-.29 2.8-.97 5.85-1.5 8.59-.23 1.23-.35 2.48-.35 3.73 0 2.13.34 4.24 1.02 6.26l.98 2.95h-20l.98-2.95c.31-.93.55-1.87.72-2.82l3.69 1.52c.4.16.83.25 1.27.25.92 0 1.76-.38 2.36-.98s.98-1.44.98-2.36v-1.04c0-.41-.1-.81-.28-1.17h.01l.04-.03c4.63-3.47 8.13-8.14 10.2-13.42-.02.48-.06.96-.12 1.46z" fill="#f0d0b4"/></g><g><path d="m33.97 30.09c-2.56 7.58-8.26 13.7-15.65 16.78l-.1.04c-.53-2.66-1.07-5.46-1.19-7.96l-3.69 8.29c1.14.25 2.24.66 3.26 1.25l2.16 1.23 1.55.88c.45.26.96.4 1.49.4h2.58c.41 0 .81.09 1.17.28.52.26.92.67 1.17 1.17.18.36.28.76.28 1.17v1.04c0 .92-.38 1.76-.98 2.36s-1.44.98-2.36.98c-.44 0-.87-.09-1.27-.25l-3.69-1.52-9.72-4c-.9-.37-1.64-1-2.16-1.77-.52-.78-.82-1.7-.82-2.68 0-.52.08-1.03.25-1.52l3.83-11.51c.57-1.7 2.01-2.97 3.77-3.32l1.15-.23 5.67-1.13 1.47.59c.1.32.26.61.46.87.39.49.93.85 1.57 1.01 1.16.29 2.14 1.08 2.68 2.15l.15.31.15-.31c.54-1.07 1.52-1.86 2.68-2.15.64-.16 1.18-.52 1.57-1.01l.46-.87 1.55-.62z" fill="#f0d0b4"/></g><g><path d="m56.43 18.77-2.43 3.23-4.3 11.46c-1.02 2.73-3.63 4.54-6.55 4.54h-1.72-4.09c.84-2.39 1.39-4.89 1.62-7.46l5.04.46 5-11-.91-1.37c-.69-1.03-.86-2.31-.47-3.49l.05-.14.93-2.81c.24-.71.91-1.19 1.66-1.19.72 0 1.34.44 1.6 1.06.09.21.14.44.14.68v3.26z" fill="#f0d0b4"/></g><g><path d="m53 13 3-3 4 11-3.57-2.23-4.43-2.77v-3.26c0-.24-.05-.47-.14-.68l.54-.27z" fill="#fcd770"/></g><g><path d="m49 5 3.4 6.79-.54.27c-.26-.62-.88-1.06-1.6-1.06-.75 0-1.42.48-1.66 1.19l-.93 2.81-2.67 2-4-14 6 5z" fill="#fcd770"/></g></g><path d="m43.056 39h.093c3.316 0 6.327-2.086 7.491-5.19l4.247-11.324 1.788-2.385 5.258 3.286-5.53-15.204-3.129 3.129-4.15-8.3-2.339 3.508-7.638-6.365 5.291 18.518 2.028-1.521c.107.715.372 1.407.788 2.031l.606.91-4.476 9.847-3.314-.301c.211-.766.728-1.419 1.46-1.785 1.524-.763 2.47-2.294 2.47-3.998 0-1.498-.744-2.888-1.99-3.718l-.178-.119c-.521-.347-.832-.927-.832-1.553 0-.201.032-.4.096-.591l.621-1.861c.188-.566.283-1.155.283-1.749 0-1.731-.827-3.385-2.212-4.424l-.791-.593c0-.015.003-.029.003-.044 0-1.044-.406-2.025-1.144-2.763l-1.515-1.515c-1.242-1.241-2.895-1.926-4.652-1.926-1.303 0-2.564.382-3.649 1.104l-1.04.694-1.04-.694c-1.085-.722-2.346-1.104-3.649-1.104-1.757 0-3.41.685-4.652 1.927l-1.515 1.515c-.738.737-1.144 1.718-1.144 2.762 0 .015.003.029.003.044l-.791.593c-1.385 1.039-2.212 2.692-2.212 4.424 0 .595.095 1.184.284 1.749l.621 1.86c.063.191.095.391.095.592 0 .626-.311 1.206-.832 1.554l-.178.119c-1.246.83-1.99 2.22-1.99 3.718 0 1.703.946 3.234 2.471 3.997.943.471 1.529 1.419 1.529 2.474v.052l-.351.07c-2.106.422-3.836 1.949-4.515 3.986l-3.836 11.508c-.198.594-.298 1.211-.298 1.836 0 2.363 1.412 4.471 3.596 5.37l8.95 3.685c-.141.64-.304 1.275-.51 1.894l-1.424 4.271h22.775l-1.424-4.271c-.639-1.918-.963-3.916-.963-5.939 0-1.2.113-2.392.335-3.542.108-.561.223-1.134.339-1.715.018-.09.035-.181.053-.271.811 3.27 2.174 6.393 4.066 9.231 2.297 3.446 5.958 5.813 10.042 6.493l1.165.195v-5.709c0-2.377 1.321-4.515 3.447-5.577l1.992-.996-2.067-.827c-5.333-2.134-9.643-6.042-12.316-11.072zm9.944-24.586 2.597-2.597 2.471 6.796-5.068-3.168zm-5.346-2.538-.837 2.511-1.254.941-2.709-9.482 4.362 3.635 1.661-2.492 1.507 3.015c-1.212-.049-2.342.71-2.73 1.872zm-3.037 20.185 5.524-12.153-1.224-1.834c-.517-.775-.645-1.729-.35-2.612l.984-2.952c.102-.306.385-.51.705-.51.411 0 .744.333.744.743v3.812l3.973 2.483-1.773 2.362-4.434 11.707c-.872 2.329-3.13 3.893-5.617 3.893h-4.437c.529-1.745.902-3.543 1.125-5.374zm-18.617 18.321c-.5-.25-1.059-.382-1.618-.382h-2.585c-.347 0-.69-.092-.993-.264l-1.138-.65c-.013-.072-.024-.145-.038-.217-.087-.449-.179-.91-.271-1.372 7.093-3.163 12.604-9.056 15.287-16.343l3.201.291c-.948 7.685-4.87 14.721-10.935 19.59-.264-.258-.567-.482-.91-.653zm-8.674-2.846c.016.081.031.159.047.24l-.273-.156c-.755-.432-1.56-.758-2.385-1.019l1.72-3.871c.25 1.589.572 3.211.891 4.806zm13.674-17.768c0 .854-.579 1.597-1.408 1.804-1.015.253-1.915.807-2.592 1.574-.678-.768-1.577-1.321-2.591-1.573-.83-.209-1.409-.951-1.409-1.805 0-.591.285-1.121.743-1.468.996.446 2.097.7 3.257.7s2.261-.254 3.257-.7c.458.347.743.877.743 1.468zm-9.946-.623-.608-.243c-.878-.352-1.446-1.191-1.446-2.136 0-.761.376-1.466 1.003-1.895.501.902 1.171 1.697 1.967 2.343-.478.539-.798 1.204-.916 1.931zm-4.054-6.213c0-.896.428-1.753 1.146-2.291l.854-.641v1c0 .678.094 1.333.254 1.962l-.339.226c-.561.375-1.011.87-1.337 1.435-.36-.485-.578-1.068-.578-1.691zm10-8.814 1.593-.797c.421-.21.892-.321 1.362-.321 1.679 0 3.045 1.366 3.045 3.045v4.955c0 1.056-.276 2.047-.757 2.909-.766-1.649-2.385-2.779-4.243-2.884v-2.025h-2v2.025c-1.858.106-3.477 1.236-4.243 2.885-.481-.863-.757-1.854-.757-2.91v-4.955c0-1.679 1.366-3.045 3.045-3.045.47 0 .941.111 1.362.321zm-3.72 11.581.057-.287c.28-1.397 1.517-2.412 2.942-2.412h1.441c1.425 0 2.662 1.015 2.942 2.412l.057.287c-1.023.812-2.314 1.301-3.719 1.301s-2.696-.489-3.72-1.301zm10.717-.829c.627.43 1.003 1.134 1.003 1.896 0 .945-.568 1.784-1.445 2.136l-.609.243c-.117-.727-.437-1.391-.917-1.931.797-.647 1.466-1.442 1.968-2.344zm2.426-.246c-.326-.566-.776-1.061-1.337-1.435l-.339-.226c.159-.63.253-1.285.253-1.963v-1l.854.641c.718.538 1.146 1.394 1.146 2.291 0 .623-.218 1.206-.577 1.692zm-7.274-18.855c1.771-1.183 4.271-.934 5.777.572l1.515 1.515c.361.36.559.838.559 1.348 0 .727-.404 1.38-1.053 1.705l-.394.196.893 1.789.395-.196c.652-.327 1.18-.816 1.553-1.403l.194.145c.884.664 1.412 1.719 1.412 2.825 0 .38-.061.756-.181 1.116l-.621 1.862c-.131.395-.198.807-.198 1.223 0 1.296.644 2.498 1.722 3.218l.179.119c.688.458 1.099 1.226 1.099 2.053 0 .941-.523 1.787-1.365 2.208-1.358.678-2.288 1.936-2.575 3.391l-1.88-.171c.501-.692.794-1.53.813-2.426 1.257-.914 2.007-2.363 2.007-3.926 0-1.522-.727-2.978-1.945-3.891l-2.055-1.541v-1.455c0-2.782-2.263-5.045-5.045-5.045-.669 0-1.337.143-1.955.403v-4.868zm-15.784 20.295c-.842-.42-1.365-1.266-1.365-2.208 0-.827.411-1.596 1.099-2.054l.179-.119c1.078-.719 1.722-1.921 1.722-3.217 0-.416-.067-.828-.198-1.224l-.621-1.861c-.12-.36-.181-.736-.181-1.116 0-1.105.528-2.161 1.412-2.824l.194-.146c.372.587.901 1.076 1.554 1.403l.394.196.893-1.789-.392-.196c-.651-.325-1.055-.978-1.055-1.705 0-.51.198-.988.558-1.349l1.515-1.515c.865-.863 2.015-1.34 3.238-1.34.907 0 1.785.266 2.54.769l1.149.766v4.868c-.618-.259-1.286-.403-1.955-.403-2.782 0-5.045 2.263-5.045 5.045v1.455l-2.055 1.541c-1.218.913-1.945 2.368-1.945 3.891 0 1.563.75 3.012 2.007 3.927.022 1.024.4 1.972 1.039 2.712l-2.07.414c-.119-1.677-1.09-3.16-2.611-3.921zm-6.365 21.716c0-.409.066-.815.195-1.204l3.836-11.507c.453-1.358 1.606-2.377 3.01-2.658l6.529-1.306.818.327c.485 1.011 1.39 1.794 2.536 2.08.881.219 1.62.812 2.026 1.625l1.05 2.099 1.049-2.099c.407-.813 1.145-1.406 2.027-1.626.769-.192 1.424-.613 1.925-1.17-2.638 5.776-7.256 10.443-13.042 13.143-.511-2.632-.959-5.267-.959-7.567v-.917h-2v.917c0 .27.011.546.022.822l-3.286 7.393c-.574-.082-1.153-.132-1.736-.132v2c1.79 0 3.556.469 5.108 1.356l3.704 2.116c.605.345 1.291.528 1.985.528h2.585c.25 0 .5.059.724.171.551.275.894.83.894 1.447v1.042c0 1.29-1.049 2.34-2.339 2.34-.306 0-.606-.06-.891-.177l-13.413-5.522c-1.432-.589-2.357-1.971-2.357-3.521zm11.388 13.22.546-1.638c.191-.575.35-1.162.491-1.753l2.584 1.064c.527.217 1.083.327 1.652.327 2.392 0 4.339-1.947 4.339-4.34v-1.042c0-.28-.039-.551-.1-.815 2.895-2.269 5.353-5 7.28-8.059-.151.801-.308 1.603-.467 2.398-.117.585-.232 1.163-.341 1.727-.247 1.275-.372 2.594-.372 3.921 0 2.237.359 4.448 1.066 6.572l.546 1.638zm33.1-8.243c-3.182-1.154-5.884-3.362-7.63-6.272l-1.715 1.029c1.934 3.224 4.904 5.685 8.403 7.021-.255.671-.428 1.376-.501 2.109-1.865-.712-3.513-1.936-4.719-3.544l-.526-.701-1.6 1.201.526.7c1.574 2.1 3.783 3.652 6.273 4.445v2.018c-3.067-.807-5.771-2.724-7.542-5.38-2.919-4.379-4.511-9.476-4.601-14.739l-.003-.199h-.007c.042-.422.087-.845.11-1.258.024-.063.051-.125.075-.188h2.779c2.571 5.341 6.803 9.605 12.111 12.175-.552.464-1.026 1.001-1.433 1.583z"/></g></svg>