<svg width="264" height="264" viewBox="0 0 264 264" fill="none" xmlns="http://www.w3.org/2000/svg">
<g clip-path="url(#clip0)">
<path d="M6.37047 163.987C7.7934 164.976 9.29601 165.844 10.8628 166.584C12.7324 167.54 15.8701 169.142 16.0909 170.263C16.3631 171.742 16.1852 173.269 15.5802 174.647C14.9353 176.032 14.2602 177.222 13.6759 178.248C12.0919 181.048 9.43893 185.739 13.4379 189.007C14.3727 189.872 15.987 191.123 17.4585 192.253C16.3752 194.147 15.8852 196.322 16.0519 198.498C16.2816 200.211 17.2107 201.753 18.6183 202.756C19.5791 203.431 20.6048 204.02 21.6132 204.596C24.1753 206.05 25.1751 206.729 25.5083 208.088C25.7488 209.83 25.601 211.604 25.0755 213.282C24.8202 214.437 24.5735 215.597 24.4263 216.744C23.9966 220.688 24.4839 224.678 25.8502 228.403C27.7969 235.28 34.0167 240.07 41.1622 240.197C42.3549 240.193 43.5441 240.067 44.7111 239.82C57.0748 236.889 69.2581 233.244 81.1993 228.901C90.95 234.622 97.1086 252.02 98.7142 258.551C99.1936 260.482 100.927 261.837 102.917 261.836L211.546 261.533C212.923 261.53 214.216 260.873 215.029 259.762C215.843 258.652 216.079 257.22 215.666 255.907C214.596 252.975 213.12 250.207 211.282 247.684C210.244 246.188 209.309 244.623 208.482 243.001C206.522 239.035 204.888 234.916 203.596 230.684C201.123 222.319 199.41 213.749 198.476 205.076C198.355 204.076 198.247 202.648 198.16 201.138C198.467 201.138 198.757 201.229 199.069 201.229C207.639 201.236 214.925 194.971 216.202 186.497C217.479 178.022 212.363 169.889 204.171 167.37C195.979 164.851 187.177 168.706 183.473 176.434C179.768 184.162 182.276 193.438 189.37 198.247C189.452 201.081 189.643 204.146 189.881 206.119C190.882 215.315 192.709 224.403 195.338 233.272C196.762 237.924 198.558 242.454 200.709 246.818C201.697 248.778 202.817 250.668 204.063 252.475L204.353 252.908L106.188 253.18C103.315 242.914 98.1008 233.453 90.9543 225.543L94.8494 224.179C97.7491 223.167 99.9347 222.405 101.056 222.046C119.596 216.181 128.866 207.738 128.615 196.944C128.559 194.554 126.576 192.662 124.186 192.718C121.796 192.774 119.904 194.757 119.96 197.147C120.064 201.601 116.415 208.097 98.4242 213.788C97.2514 214.165 94.9922 214.952 91.993 216C88.7774 217.125 84.6876 218.553 80.1779 220.085H80.1477C67.9682 224.55 55.5409 228.307 42.928 231.338C38.9006 232.102 34.9856 229.559 34.0472 225.568C33.1226 223.106 32.7747 220.465 33.0301 217.848C33.1427 216.939 33.3504 216.039 33.5495 215.134C34.4314 212.142 34.5607 208.978 33.926 205.924C32.6672 201.949 29.7419 198.717 25.9108 197.069L25.0149 196.559C25.4822 195.615 26.0403 194.72 26.6812 193.884C27.4072 192.964 27.7291 191.789 27.5733 190.628C27.4175 189.466 26.7973 188.417 25.8545 187.721C24.8158 186.96 22.3663 185.125 20.5745 183.679C20.7823 183.303 21.0073 182.887 21.2237 182.511C21.9032 181.32 22.6779 179.935 23.4353 178.334C24.8048 175.301 25.2082 171.919 24.5908 168.648C23.5521 163.368 18.4928 160.78 14.8055 158.893C13.5604 158.302 12.3662 157.608 11.235 156.82C10.3148 156.198 9.45156 155.496 8.65559 154.721C8.65559 154.063 9.36103 152.471 12.6589 148.459C20.4104 138.48 27.0565 127.689 32.4805 116.277C33.4947 114.489 34.066 112.484 34.1467 110.43C33.6997 106.08 31.3944 102.135 27.8237 99.6102C26.0926 98.0046 24.4263 96.4898 24.2316 95.0789C24.2603 94.0574 24.4897 93.0516 24.9067 92.1187C25.6122 90.262 26.4258 88.4443 27.2438 86.6223C29.0184 82.9631 30.4359 79.1412 31.4764 75.2097L31.9092 73.366C32.8228 69.0393 34.0007 64.7727 35.4364 60.5902C38.8481 51.1738 44.1303 42.5454 50.9648 35.2245C59.244 26.4649 72.2753 20.2674 89.7598 16.7921C103.136 13.8559 116.708 11.9003 130.368 10.9409C141.046 10.6059 151.709 11.9644 161.962 14.9658C152.261 22.4328 145.068 32.6792 141.339 44.339C139.609 49.6636 140.55 55.4955 143.867 60.0059C147.71 65.2586 154.178 67.9061 160.601 66.8549C167.024 65.8038 172.311 61.2325 174.279 55.0289C178.256 42.269 191.269 34.6118 204.354 37.3317C217.44 40.0516 226.324 52.26 224.886 65.5477C223.449 78.8355 212.161 88.8621 198.796 88.7213C194.25 88.6996 189.873 90.4472 186.592 93.5945C183.499 96.6325 181.761 100.789 181.77 105.124V140.656C181.77 150.217 189.521 157.967 199.082 157.967C208.643 157.967 216.393 150.217 216.393 140.656V120.825C238.472 114.331 254.961 95.8819 258.944 73.215C262.927 50.5482 253.716 27.5828 235.174 13.9503C216.632 0.317808 191.965 -1.62486 171.518 8.93706C158.19 4.12906 144.076 1.87674 129.914 2.29811C115.831 3.27486 101.839 5.2826 88.0503 8.30519C68.536 12.2003 54.3535 19.0426 44.6721 29.2737C37.0352 37.4455 31.1304 47.0777 27.313 57.591C25.7544 62.1148 24.4739 66.7297 23.4785 71.4098L23.0457 73.2362C22.1221 76.6306 20.8832 79.9312 19.3454 83.0951C18.4798 85.0686 17.5797 87.0421 16.805 89.0848C15.8089 91.3587 15.4154 93.8509 15.6624 96.321C16.5332 100.2 18.7717 103.635 21.9681 105.998C24.0844 107.937 25.4737 109.305 25.491 110.495C25.3361 111.153 25.0884 111.785 24.7553 112.373C19.5725 123.285 13.2241 133.603 5.82083 143.149C2.68313 146.966 -0.606054 151.419 0.086405 155.877C1.00443 159.316 3.26979 162.239 6.37047 163.987ZM199.082 175.279C203.862 175.279 207.738 179.154 207.738 183.934C207.738 188.715 203.862 192.59 199.082 192.59C194.301 192.59 190.426 188.715 190.426 183.934C190.426 179.154 194.301 175.279 199.082 175.279ZM205.015 11.1486C230.084 14.0141 249.467 34.4836 250.961 59.6716C252.455 84.8596 235.629 107.477 211.074 113.286C209.118 113.746 207.736 115.492 207.738 117.502V140.656C207.738 145.436 203.862 149.311 199.082 149.311C194.301 149.311 190.426 145.436 190.426 140.656V105.124C190.419 103.103 191.227 101.165 192.668 99.7487C194.349 98.1388 196.613 97.2826 198.939 97.377H199.082C216.421 97.5626 231.16 84.7504 233.389 67.5537C234.778 57.6274 231.798 47.5862 225.218 40.0252C218.638 32.4643 209.105 28.1258 199.082 28.1311C183.902 28.0723 170.471 37.953 166.008 52.4624C165.011 55.54 162.374 57.7995 159.18 58.3133C155.986 58.8271 152.773 57.5085 150.861 54.899C149.184 52.6155 148.712 49.6631 149.593 46.9704C157.23 23.3938 180.382 8.42922 205.015 11.1486Z" fill="#99958C"/>
<path d="M48.3295 79.1692L48.7623 77.2433C49.5208 73.6452 50.4846 70.0935 51.6489 66.6054C54.2554 59.3801 58.2948 52.7558 63.5246 47.13C69.1336 41.8414 75.9992 38.0712 83.4718 36.1762C84.9805 35.751 86.1414 34.5433 86.5066 33.0189C86.8719 31.4945 86.3843 29.8918 85.232 28.8291C84.0797 27.7664 82.4428 27.4099 80.9529 27.897C72.0349 30.2146 63.865 34.7922 57.2319 41.1879C51.2049 47.6669 46.5487 55.2966 43.5428 63.6192C42.2443 67.4608 41.1735 71.3757 40.3359 75.3434L39.9031 77.2174C39.363 79.544 40.8099 81.8684 43.136 82.4108C43.458 82.4864 43.7877 82.5242 44.1184 82.5233C46.1313 82.5206 47.8766 81.1305 48.3295 79.1692Z" fill="#99958C"/>
<path d="M38.9509 97.3774C41.3411 97.3774 43.2788 95.4398 43.2788 93.0495C43.2788 90.6593 41.3411 88.7217 38.9509 88.7217C36.5607 88.7217 34.623 90.6593 34.623 93.0495C34.623 95.4398 36.5607 97.3774 38.9509 97.3774Z" fill="#99958C"/>
</g>
<defs>
<clipPath id="clip0">
<rect width="264" height="264" fill="white"/>
</clipPath>
</defs>
</svg>
