<svg width="134" height="220" viewBox="0 0 134 220" fill="none" xmlns="http://www.w3.org/2000/svg">
<path d="M84.7898 207.532V85.6298V49.1806V0.176758H48.8558V49.1806L48.8555 85.6298L48.8558 207.532H84.7898Z" fill="#99958C"/>
<g clip-path="url(#clip0)">
<path d="M97.7518 128.872C94.9593 125.823 90.6179 121.708 88.7709 131C88.1428 134.159 86.6754 136.594 85.4178 138.555C84.0624 131.695 79.9843 124.594 76.1417 119.807C74.7038 118.016 69.6019 110.895 68.6218 98.9825C68.4754 97.2047 66.3636 96.3698 65.0427 97.569C52.4195 109.028 45.4908 124.788 45.2335 142.531C45.2335 142.531 39.9772 138.1 37.1216 129.858C36.3526 127.638 33.3769 127.215 32.0858 129.177C31.838 129.554 31.6082 129.932 31.4009 130.298C21.6616 147.519 16.9765 168.432 21.3077 187.888C28.5495 220.471 76.4529 229.58 101.813 209.101C126.625 189.065 118.738 151.773 97.7518 128.872Z" fill="#ED694A"/>
<path d="M28.0483 189.934C23.7674 170.269 28.2987 149.153 37.8093 131.662C37.5688 131.082 37.3375 130.482 37.1213 129.858C36.3524 127.638 33.3766 127.215 32.0856 129.178C31.8377 129.555 31.6082 129.932 31.4009 130.298C21.6616 147.519 16.9765 168.432 21.3077 187.888C24.6109 202.75 36.3746 212.725 50.5993 217.24C39.5024 211.864 30.8123 202.649 28.0483 189.934Z" fill="#D8553A"/>
<path d="M52.0075 142.204C52.5333 126.102 58.3575 111.663 68.7818 100.57C68.7101 99.9596 68.657 99.4134 68.6227 98.9988C68.4732 97.2058 66.4386 96.3065 65.1235 97.4952C52.9313 108.518 45.5001 124.119 45.2334 142.53L47.5153 144.303C48.6391 145.175 50.1618 145.137 51.2351 144.338C51.8756 143.795 51.9674 142.976 52.0075 142.204Z" fill="#D8553A"/>
<path d="M90.0949 152.691C88.0326 150.439 84.8257 147.399 83.4616 154.262C82.9979 156.596 81.9136 158.395 80.9853 159.843C79.9842 154.776 76.9718 149.531 74.1337 145.995C73.0717 144.672 69.3034 139.413 68.5793 130.614C68.4712 129.3 66.9116 128.684 65.9359 129.57C56.6122 138.033 51.4943 149.674 51.3045 162.779C51.3045 162.779 47.4219 159.507 45.313 153.419C44.745 151.779 42.5469 151.466 41.5934 152.916C41.4105 153.194 41.2406 153.473 41.0875 153.744C33.8937 166.464 30.4332 181.91 33.6322 196.281C38.9812 220.348 74.3635 227.076 93.0952 211.95C111.422 197.151 105.596 169.606 90.0949 152.691Z" fill="#F4A32C"/>
<path d="M40.3027 198.169C37.4704 184.121 40.404 169.047 46.6237 156.495C46.1498 155.567 45.7007 154.541 45.3117 153.419C44.7438 151.779 42.5456 151.466 41.5922 152.916C41.4093 153.194 41.2394 153.473 41.0863 153.744C33.8927 166.464 30.4325 181.91 33.631 196.281C36.1189 207.474 45.1039 214.914 55.8878 218.152C48.226 214.31 42.1934 207.559 40.3027 198.169Z" fill="#E89528"/>
<path d="M83.1045 174.436C81.7085 172.911 79.5372 170.854 78.6139 175.5C78.3001 177.079 77.566 178.297 76.9373 179.277C76.2595 175.847 74.2207 172.297 72.2991 169.903C71.5805 169.007 69.0295 165.447 68.539 159.491C68.4658 158.602 67.4102 158.184 66.7497 158.784C60.4381 164.514 56.9737 172.394 56.8452 181.265C56.8452 181.265 54.2167 179.05 52.7893 174.929C52.4049 173.819 50.917 173.607 50.2716 174.588C50.1475 174.777 50.0329 174.965 49.929 175.149C45.0595 183.759 42.7168 194.215 44.8823 203.944C48.5032 220.235 72.4549 224.79 85.1349 214.55C89.4771 211.044 92.1694 206.103 92.7153 200.637C93.5395 192.359 90.3535 182.346 83.1045 174.436Z" fill="#F4D44E"/>
<path d="M76.6176 194.615C75.8398 193.766 74.6304 192.619 74.1158 195.207C73.941 196.088 73.5322 196.766 73.1818 197.312C72.8041 195.401 71.6682 193.423 70.5978 192.09C70.1974 191.591 68.776 189.607 68.5028 186.289C68.4619 185.793 67.8736 185.561 67.5059 185.895C63.9897 189.087 62.0593 193.477 61.9878 198.42C61.9878 198.42 60.5235 197.185 59.7281 194.889C59.5138 194.271 58.6849 194.153 58.3256 194.7C58.2565 194.805 58.1926 194.91 58.135 195.012C55.4221 199.809 54.1169 205.635 55.3234 211.055C58.0709 223.416 80.5913 223.041 81.9726 209.212C82.4312 204.601 80.6562 199.022 76.6176 194.615Z" fill="#EAE9E8"/>
<path d="M60.5523 213.508C59.3458 208.66 60.6509 203.448 63.3639 199.157C63.4215 199.066 63.4856 198.972 63.5545 198.878C63.9141 198.389 64.7429 198.494 64.957 199.047C65.7524 201.101 67.2167 202.206 67.2167 202.206C67.2756 198.573 68.5915 195.275 71.0085 192.63C70.468 191.882 68.8145 190.077 68.5028 186.289C68.4619 185.794 67.8736 185.562 67.5059 185.895C63.9897 189.087 62.0593 193.478 61.9878 198.42C61.9878 198.42 60.5235 197.186 59.7281 194.89C59.514 194.272 58.6849 194.153 58.3256 194.7C58.2565 194.805 58.1926 194.911 58.135 195.013C55.4221 199.81 54.1169 205.635 55.3234 211.055C56.4399 216.079 61.0268 219.098 66.0978 219.827C63.3623 218.483 61.26 216.356 60.5523 213.508Z" fill="#F7E7A1"/>
<path d="M48.3134 103.809C53.973 99.2053 53.9605 90.5929 48.3134 86C42.6537 90.6031 42.666 99.2157 48.3134 103.809Z" fill="#D8553A"/>
<path d="M116.149 140.755C121.809 136.152 121.796 127.539 116.149 122.946C113.562 125.05 110.502 136.162 116.149 140.755Z" fill="#D8553A"/>
<path d="M15.9089 144.26C19.9878 140.942 19.9789 134.736 15.9089 131.425C14.0447 132.941 11.8389 140.95 15.9089 144.26Z" fill="#D8553A"/>
<path d="M86.5528 116.644C90.6317 113.326 90.6228 107.119 86.5528 103.809C82.4739 107.126 82.4831 113.333 86.5528 116.644Z" fill="#D8553A"/>
<path d="M56.508 160.675C57.4447 149.616 61.6675 139.784 68.758 132.288C68.6863 131.745 68.6258 131.187 68.5787 130.614C68.4706 129.3 66.9111 128.684 65.9354 129.57C58.547 136.276 53.8052 144.98 52.0585 154.825L52.0559 154.824C51.9263 155.554 51.7656 156.618 51.6641 157.453C51.6644 157.454 51.6646 157.455 51.6651 157.455C51.4529 159.199 51.3299 160.975 51.3037 162.78C51.501 162.818 55.9681 165.114 56.508 160.675Z" fill="#E89528"/>
<path d="M51.4093 206.255C49.4843 197.166 51.1237 187.475 54.9323 179.078C54.1945 178.043 53.3871 176.653 52.7896 174.928C52.4049 173.819 50.9172 173.607 50.2716 174.588C50.1478 174.776 50.0326 174.965 49.929 175.148C45.0595 183.759 42.7168 194.215 44.8823 203.943C46.5782 211.573 52.7331 216.628 60.1007 218.796C55.8122 215.949 52.5682 211.735 51.4093 206.255Z" fill="#E8C842"/>
<path d="M63.7945 177.294C64.4326 172.733 66.2979 167.709 69.2341 163.508C68.9143 162.322 68.6628 160.981 68.54 159.491C68.4667 158.602 67.411 158.184 66.7506 158.784C62.8181 162.354 59.9954 166.761 58.3919 171.72L58.3877 171.719C58.1354 172.498 57.7787 173.789 57.5625 174.808C57.5643 174.808 57.5661 174.808 57.568 174.807C57.1252 176.886 56.8789 179.044 56.8467 181.265C60.3778 181.705 63.2988 180.831 63.7945 177.294Z" fill="#E8C842"/>
</g>
<defs>
<clipPath id="clip0">
<rect y="86" width="134" height="134" fill="white"/>
</clipPath>
</defs>
</svg>
