<svg id="Capa_1" enable-background="new 0 0 512.001 512.001" height="512" viewBox="0 0 512.001 512.001" width="512" xmlns="http://www.w3.org/2000/svg"><path d="m61 376.001v121c0 8.284 6.716 15 15 15h360c8.284 0 15-6.716 15-15v-121c0-42.194-24.72-78.353-60.742-95.201.488-3.337.742-6.613.742-9.799 0-20.892-10.572-40.709-30-56.66v-77.493l29.552-118.209c1.382-5.529-.488-11.363-4.827-15.058-4.339-3.695-10.396-4.613-15.634-2.367l-62.95 26.979-43.423-26.054c-4.75-2.851-10.685-2.851-15.435 0l-43.424 26.054-62.95-26.979c-5.239-2.246-11.296-1.328-15.634 2.367s-6.208 9.529-4.827 15.058l29.552 118.209v77.493c-19.428 15.951-30 35.768-30 56.66 0 3.187.254 6.462.742 9.799-36.003 16.839-60.742 52.986-60.742 95.201zm30 15h15c28.321 0 55.91-7.217 80.412-20.915 5.566 3.506 11.283 6.595 17.117 9.245-25.291 26.379-60.498 41.67-97.529 41.67h-15zm120 91h-120v-31h15c25.24 0 49.784-5.815 71.921-16.545 10.682 4.68 21.744 8.401 33.079 11.09zm60-48.71v48.71h-30v-48.71c0-7.321-5.284-13.572-12.502-14.791-6.313-1.066-12.542-2.519-18.67-4.308 9.132-7.385 17.526-15.771 24.988-25.077 7.014 1.243 14.094 1.886 21.184 1.886s14.17-.643 21.184-1.886c7.462 9.306 15.856 17.692 24.988 25.077-6.129 1.79-12.357 3.242-18.67 4.308-7.217 1.219-12.502 7.47-12.502 14.791zm150 48.71h-120v-36.455c11.335-2.689 22.397-6.41 33.079-11.09 22.137 10.73 46.681 16.545 71.921 16.545h15zm0-61h-15c-37.031 0-72.239-15.291-97.529-41.67 5.834-2.65 11.551-5.739 17.117-9.245 24.502 13.698 52.091 20.915 80.412 20.915h15zm-40.073-111.411c20.013 10.458 34.143 29.306 38.585 51.411h-13.512c-18.902 0-37.398-3.932-54.449-11.452 12.49-12.174 22.543-26.018 29.376-39.959zm-180.836-250.802c4.426 1.898 9.496 1.554 13.626-.925l42.283-25.369 42.283 25.37c4.13 2.479 9.2 2.823 13.626.925l42.204-18.087-19.825 79.3h-156.576l-19.825-79.3zm130.909 91.213v62.876c-1.161 2.017-1.617 4.564-6.518 8.899-15.067 13.328-40.358 11.135-56.38-4.885l-1.496-1.496c-5.857-5.858-15.355-5.858-21.213 0l-1.496 1.496c-16.022 16.021-41.313 18.212-56.379 4.886-4.89-4.327-5.37-6.904-6.518-8.9v-62.876zm-165.844 91.926c13.419 13.221 32.206 20.097 52.653 18.31 13.808-1.208 27.021-6.215 38.191-14.345 11.17 8.13 24.383 13.138 38.191 14.345 20.445 1.786 39.232-5.086 52.653-18.31 7.359 7.235 14.155 17.146 14.155 29.074 0 38.047-53.459 90-105 90-57.037 0-105-55.995-105-90 .001-11.928 6.797-21.84 14.157-29.074zm-34.083 67.663c6.834 13.941 16.886 27.785 29.376 39.959-17.051 7.52-35.547 11.452-54.449 11.452h-13.512c4.442-22.105 18.572-40.952 38.585-51.411z"/><circle cx="256" cy="75.001" r="15"/></svg>